# Audio_Vector_Ball_Spiked
# Vector/wireframe audio visualizer ball OBJ
# OBJ has mesh geometry only. Use Blender shape keys, GLB, FBX, or engine-side vertex displacement for animation.

o Audio_Vector_Ball_Spiked
v -0.525731 0.850651 0.000000
v 0.525731 0.850651 0.000000
v -0.610958 -0.988550 0.000000
v 0.972180 -1.573020 0.000000
v 0.000000 -0.525731 0.850651
v 0.000000 0.772940 1.250642
v 0.000000 -0.525731 -0.850651
v 0.000000 0.572421 -0.926196
v 0.965936 0.000000 -0.596981
v 0.850651 0.000000 0.525731
v -1.170201 0.000000 -0.723224
v -0.850651 0.000000 0.525731
v -1.011771 0.625309 0.386462
v -0.523487 0.323533 0.847020
v -0.532763 1.394793 0.862029
v 0.476052 1.246321 0.770269
v 0.000000 1.000000 0.000000
v 0.363856 0.952587 -0.588731
v -0.420567 1.101059 -0.680492
v -0.500000 0.309017 -0.809017
v -0.809017 0.500000 -0.309017
v -1.243347 0.000000 0.000000
v 0.624196 0.385774 1.009970
v 0.982179 0.607020 0.375159
v -0.500000 -0.309017 0.809017
v 0.000000 0.000000 1.000000
v -0.809017 -0.500000 -0.309017
v -1.304164 -0.806017 0.498146
v 0.000000 0.000000 -1.086250
v -0.500000 -0.309017 -0.809017
v 0.809017 0.500000 -0.309017
v 0.500157 0.309114 -0.809271
v 1.274572 -0.787729 0.486843
v 0.600552 -0.371161 0.971713
v 0.309017 -0.809017 0.500000
v -0.309017 -0.809017 0.500000
v 0.000000 -1.152648 0.000000
v -0.309017 -0.809017 -0.500000
v 0.309017 -0.809017 -0.500000
v 0.500000 -0.309017 -0.809017
v 0.809017 -0.500000 -0.309017
v 1.000000 0.000000 0.000000
v -0.831300 0.841204 0.192460
v -0.587785 0.688191 0.425325
v -0.437868 0.870580 0.262275
v -0.702046 0.160622 0.693780
v -0.985454 0.609044 0.841678
v -0.862668 0.259892 0.433889
v -0.209476 0.904799 0.915579
v -0.425325 0.587785 0.688191
v -0.259892 0.433889 0.862668
v -0.182060 1.065798 0.294579
v -0.287268 1.011227 0.000000
v 0.160622 0.693780 0.702046
v 0.000000 0.946187 0.584776
v 0.402501 1.416861 0.000000
v 0.175514 1.027476 0.283987
v 0.464488 0.923508 0.278221
v -0.174071 1.019028 -0.281652
v -0.448630 0.891979 -0.268722
v 0.475251 0.944907 -0.284667
v 0.167524 0.980705 -0.271060
v -0.175163 0.756588 -0.765602
v 0.000000 0.850651 -0.525731
v 0.160622 0.693780 -0.702046
v -0.587785 0.688191 -0.425325
v -1.247019 1.261876 -0.288706
v -0.259892 0.433889 -0.862668
v -0.425325 0.587785 -0.688191
v -0.862668 0.259892 -0.433889
v -1.121062 0.692854 -0.957501
v -0.702046 0.160622 -0.693780
v -0.850651 0.525731 0.000000
v -0.961938 0.000000 -0.273267
v -1.248680 0.345127 -0.213300
v -0.951057 0.262866 0.162460
v -1.735893 0.000000 0.493131
v 0.587785 0.688191 0.425325
v 0.693780 0.702046 0.160622
v 0.259892 0.433889 0.862668
v 0.577421 0.797976 0.934286
v 0.862668 0.259892 0.433889
v 0.688191 0.425325 0.587785
v 1.173292 0.268439 1.159477
v -0.267236 0.165161 0.966870
v 0.000000 0.273267 0.961938
v -0.702046 -0.160622 0.693780
v -0.595592 0.000000 0.963687
v 0.000000 -0.273267 0.961938
v -0.262866 -0.162460 0.951057
v -0.429753 -0.717471 1.426495
v -0.951057 -0.262866 0.162460
v -0.862668 -0.259892 0.433889
v -1.195089 -0.360039 -0.601083
v -1.575619 -0.435490 -0.269148
v -0.812681 -0.822364 0.188150
v -0.850651 -0.525731 0.000000
v -1.228400 -1.243035 -0.284396
v -0.693549 0.000000 -1.122186
v -0.702046 -0.160622 -0.693780
v 0.000000 0.398685 -1.403430
v -0.341896 0.211304 -1.236993
v -0.367834 -0.614098 -1.220966
v -0.327821 -0.202604 -1.186067
v 0.000000 -0.302741 -1.065693
v 0.681434 0.941719 -1.102584
v 0.259892 0.433889 -0.862668
v 0.693780 0.702046 -0.160622
v 0.587785 0.688191 -0.425325
v 0.837011 0.191501 -0.827156
v 0.688191 0.425325 -0.587785
v 0.949003 0.285901 -0.477311
v 0.693780 -0.702046 0.160622
v 0.728206 -0.852599 0.526935
v 0.433889 -0.862668 0.259892
v 1.086122 -0.248495 1.073334
v 0.688191 -0.425325 0.587785
v 0.886075 -0.266944 0.445661
v 0.160622 -0.693780 0.702046
v 0.554382 -0.766137 0.897009
v 0.354415 -0.591694 1.176421
v 0.162460 -0.951057 0.262866
v 0.273267 -0.961938 0.000000
v -0.196573 -0.849064 0.859180
v 0.000000 -0.965308 0.596593
v -0.273267 -0.961938 0.000000
v -0.162460 -0.951057 0.262866
v -0.433889 -0.862668 0.259892
v 0.162460 -0.951057 -0.262866
v 0.433889 -0.862668 -0.259892
v -0.433889 -0.862668 -0.259892
v -0.162460 -0.951057 -0.262866
v 0.160622 -0.693780 -0.702046
v 0.000000 -0.850651 -0.525731
v -0.162259 -0.700853 -0.709203
v 0.828326 -0.969821 -0.599382
v 0.693780 -0.702046 -0.160622
v 0.292496 -0.488321 -0.970892
v 0.658396 -0.909880 -1.065306
v 1.304830 -0.393100 -0.656279
v 0.688191 -0.425325 -0.587785
v 0.749841 -0.171557 -0.741012
v 0.962241 -0.594698 0.000000
v 0.961938 0.000000 -0.273267
v 1.315568 -0.363614 -0.224726
v 0.951057 -0.262866 0.162460
v 1.227687 0.000000 0.348760
v 0.262866 -0.162460 0.951057
v 0.525731 0.000000 0.850651
v 0.262866 0.162460 0.951057
v -0.595083 -0.696735 0.430606
v -0.425325 -0.587785 0.688191
v -0.742406 -0.458832 0.634090
v -0.425325 -0.587785 -0.688191
v -0.695202 -0.813957 -0.503053
v -0.878013 -0.542642 -0.749913
v 0.525731 0.000000 -0.850651
v 0.262866 -0.162460 -0.951057
v 0.272570 0.168458 -0.986169
v 0.951057 0.262866 0.162460
v 0.988629 0.273250 -0.168878
v 0.978724 0.604885 0.000000
v -0.615642 0.783843 0.081086
v -0.571252 0.792649 0.213023
v -0.484442 0.864929 0.131200
v -0.707107 0.601501 0.371748
v -0.647412 0.702310 0.296005
v -1.121066 0.896710 0.350344
v -0.396867 0.893029 0.405941
v -0.516122 0.783452 0.346153
v -0.453990 0.757935 0.468430
v -0.783843 0.081086 0.615642
v -0.872043 0.234360 0.628470
v -0.864929 0.131200 0.484442
v -0.601501 0.371748 0.707107
v -0.981779 0.413793 0.905036
v -0.705600 0.275678 0.882141
v -0.843911 0.383614 0.375039
v -0.903052 0.398996 0.594912
v -0.757935 0.468430 0.453990
v -0.129507 0.983274 1.251917
v -0.282694 0.758085 1.051892
v -0.190771 0.704401 1.257648
v -0.427133 0.812456 0.691116
v -0.296005 0.647412 0.702310
v -0.354456 1.134223 0.907234
v -0.383614 0.375039 0.843911
v -0.346153 0.516122 0.783452
v -0.468430 0.453990 0.757935
v -0.719511 0.627902 0.571284
v -0.564254 0.513375 0.646578
v -0.528795 0.665999 0.581202
v -0.552137 1.424629 0.202920
v -0.403355 0.915043 0.000000
v -0.342485 1.278534 0.554153
v -0.425397 1.293797 0.372902
v -0.137952 0.990439 0.000000
v -0.373950 1.641775 0.225597
v -0.106900 1.283812 0.172968
v 0.101847 0.773267 0.984534
v 0.000000 0.738450 0.747249
v 0.186891 1.003753 0.620353
v 0.081142 0.780204 0.620240
v 0.245006 0.783994 0.627095
v -0.088153 0.847622 0.673835
v -0.262943 1.412213 0.872796
v 0.485075 1.100432 0.000000
v 0.454849 1.173604 0.167165
v 0.484442 0.864929 0.131200
v 0.107855 1.295279 0.174513
v 0.335259 1.471908 0.202256
v 0.172816 1.240748 0.000000
v 0.666932 1.500729 0.682181
v 0.399565 1.215229 0.350257
v 0.410767 1.533436 0.664634
v -0.096985 1.075584 0.470777
v 0.101545 1.126147 0.492908
v 0.000000 0.963861 0.266405
v -0.358229 0.924305 -0.131655
v -0.484442 0.864929 -0.131200
v -0.082242 0.987688 -0.133071
v -0.220117 0.966393 -0.132792
v -0.377561 0.849588 -0.386194
v -0.398220 1.211139 -0.349078
v -0.282276 1.053767 -0.456732
v 0.484442 0.864929 -0.131200
v 0.358229 0.924305 -0.131655
v 0.350557 1.308668 -0.567214
v 0.372387 1.132571 -0.326433
v 0.647626 1.457288 -0.662434
v 0.220117 0.966393 -0.132792
v 0.082242 0.987688 -0.133071
v -0.093930 0.713159 -0.908003
v 0.000000 0.702907 -0.711282
v 0.081086 0.615642 -0.783843
v -0.215400 1.156869 -0.714984
v -0.096026 0.923325 -0.734016
v -0.324838 1.039447 -0.831425
v 0.237086 0.758652 -0.606825
v 0.081142 0.780204 -0.620240
v 0.156434 0.840178 -0.519258
v 0.000000 0.963861 -0.266405
v 0.082324 0.912982 -0.399607
v -0.082324 0.912982 -0.399607
v -0.677185 0.939638 -0.252526
v -0.615642 0.783843 -0.081086
v -0.453990 0.757935 -0.468430
v -0.516122 0.783452 -0.346153
v -0.919612 0.735572 -0.287388
v -0.741627 0.804515 -0.339081
v -0.707107 0.601501 -0.371748
v -0.149693 0.552722 -0.986838
v -0.239841 0.643169 -0.892439
v -0.468430 0.453990 -0.757935
v -0.346153 0.516122 -0.783452
v -0.383614 0.375039 -0.843911
v -0.296005 0.647412 -0.702310
v -0.371748 0.707107 -0.601501
v -0.864929 0.131200 -0.484442
v -0.792649 0.213023 -0.571252
v -0.783843 0.081086 -0.615642
v -0.983204 0.607653 -0.588922
v -1.049608 0.463749 -0.691460
v -0.843911 0.383614 -0.375039
v -0.606825 0.237086 -0.758652
v -0.702310 0.296005 -0.647412
v -0.601501 0.371748 -0.707107
v -0.513375 0.646578 -0.564254
v -0.755797 0.687646 -0.866066
v -0.883705 0.771190 -0.701652
v -0.738305 0.747102 0.000000
v -0.840178 0.519258 -0.156434
v -1.266941 1.007181 -0.131763
v -0.915468 0.727770 0.095209
v -1.026756 0.634570 0.191174
v -1.034681 0.000000 -0.456092
v -0.924305 0.131655 -0.358229
v -1.702065 0.229319 -0.141727
v -1.062097 0.145943 -0.241916
v -1.269802 0.000000 -0.176863
v -0.916244 0.264083 -0.301259
v -0.891007 0.386187 -0.238677
v -0.924305 0.131655 0.358229
v -0.937200 0.000000 0.413122
v -0.986835 0.427722 0.264347
v -0.916244 0.264083 0.301259
v -1.335984 0.000000 0.186081
v -1.277663 0.175564 0.291016
v -1.111178 0.149709 0.092525
v -0.912982 0.399607 -0.082324
v -0.963861 0.266405 0.000000
v -0.912982 0.399607 0.082324
v 0.571252 0.792649 0.213023
v 0.615642 0.783843 0.081086
v 0.612668 1.022846 0.632154
v 0.630950 0.957756 0.423166
v 0.758652 0.606825 0.237086
v 0.647412 0.702310 0.296005
v 0.707107 0.601501 0.371748
v 0.131200 0.484442 0.864929
v 0.244000 0.654321 0.907913
v 0.590414 0.572214 0.955309
v 0.416450 0.620936 0.942555
v 0.383614 0.375039 0.843911
v 0.393268 0.860142 0.933079
v 0.453394 0.862406 0.733606
v 0.864929 0.131200 0.484442
v 0.792649 0.213023 0.571252
v 0.783843 0.081086 0.615642
v 0.757935 0.468430 0.453990
v 0.783452 0.346153 0.516122
v 0.960257 0.436501 0.426743
v 1.070117 0.418094 1.337860
v 1.021125 0.430377 0.941306
v 0.842617 0.520766 0.990556
v 0.513375 0.646578 0.564254
v 0.564254 0.513375 0.646578
v 0.646578 0.564254 0.513375
v -0.131655 0.358229 0.924305
v 0.000000 0.433043 0.982393
v -0.494185 0.305423 1.140177
v -0.264083 0.301259 0.916244
v 0.000000 0.152613 1.095699
v -0.132792 0.220117 0.966393
v -0.133071 0.082242 0.987688
v -0.887343 -0.091793 0.696933
v -0.711282 0.000000 0.702907
v -0.519258 -0.156434 0.840178
v -0.620240 -0.081142 0.780204
v -0.606825 -0.237086 0.758652
v -0.620240 0.081142 0.780204
v -0.833049 0.250969 1.347902
v 0.000000 -0.422432 0.958321
v -0.185682 -0.505232 1.303604
v -0.183484 -0.677492 1.209605
v -0.133071 -0.082242 0.987688
v -0.132792 -0.220117 0.966393
v 0.000000 -0.137952 0.990439
v -0.561210 -0.548665 1.234605
v -0.440190 -0.502158 1.527255
v -0.576810 -0.356488 1.330810
v -0.699994 0.144207 1.599277
v -0.530702 -0.109331 1.212495
v -0.293506 0.000000 1.061916
v -1.323872 -0.188569 0.513087
v -1.127774 -0.171071 0.631659
v -0.987688 -0.133071 0.082242
v -1.381987 -0.189900 0.314778
v -0.843911 -0.383614 0.375039
v -1.083761 -0.312365 0.356338
v -1.378281 -0.597386 0.369205
v -1.500068 -0.227544 -0.840179
v -1.273537 -0.181399 -0.493579
v -0.891007 -0.386187 -0.238677
v -1.070723 -0.308607 -0.352051
v -0.843911 -0.383614 -0.375039
v -1.166421 -0.160278 -0.265678
v -1.283655 -0.172947 -0.106887
v -0.737542 -0.939048 0.097142
v -0.702907 -0.711282 0.000000
v -0.966175 -1.230146 -0.127255
v -1.171376 -0.723950 0.218101
v -0.780204 -0.620240 0.081142
v -1.180921 -0.944586 0.369049
v -0.979467 -0.783449 -0.306093
v -0.914249 -0.726801 -0.095083
v -0.973055 -0.601381 -0.181175
v -1.143938 -0.316177 0.000000
v -1.386722 -0.606960 -0.125041
v -1.048509 -0.458926 0.094544
v -0.711282 0.000000 -0.702907
v -0.819416 -0.084766 -0.643582
v -0.777862 0.234343 -1.258607
v -0.667528 0.087328 -0.839689
v -0.606825 -0.237086 -0.758652
v -0.620240 -0.081142 -0.780204
v -0.519258 -0.156434 -0.840178
v 0.000000 0.403355 -0.915043
v -0.131655 0.358229 -0.924305
v -0.153882 0.095104 -1.142150
v -0.179349 0.297290 -1.305209
v 0.000000 0.233739 -1.678147
v -0.264083 0.301259 -0.916244
v -0.437461 0.270366 -1.009305
v -0.142405 -0.525813 -0.938795
v -0.186809 -0.508299 -1.311517
v 0.000000 -0.403355 -0.915043
v -0.520087 -0.321431 -1.199938
v -0.440296 -0.502279 -1.527622
v -0.487470 -0.476574 -1.072385
v 0.000000 -0.137952 -0.990439
v -0.153545 -0.254516 -1.117418
v -0.133071 -0.082242 -0.987688
v -0.672991 0.138644 -1.537582
v -0.291965 0.000000 -1.056339
v -0.503698 -0.103768 -1.150800
v 0.213023 0.571252 -0.792649
v 0.131200 0.484442 -0.864929
v 0.371748 0.707107 -0.601501
v 0.367785 0.804409 -0.872619
v 0.383614 0.375039 -0.843911
v 0.476411 0.710339 -1.078266
v 0.781010 0.756935 -1.263701
v 0.615642 0.783843 -0.081086
v 0.571252 0.792649 -0.213023
v 0.707107 0.601501 -0.371748
v 0.647412 0.702310 -0.296005
v 0.758652 0.606825 -0.237086
v 0.773032 1.173431 -0.518458
v 0.527597 0.880821 -0.544377
v 0.783843 0.081086 -0.615642
v 0.792649 0.213023 -0.571252
v 0.864929 0.131200 -0.484442
v 0.841429 0.520031 -0.989159
v 0.702310 0.296005 -0.647412
v 0.814051 0.318049 -1.017726
v 0.932439 0.423855 -0.414381
v 0.783452 0.346153 -0.516122
v 0.762563 0.471290 -0.456763
v 0.513375 0.646578 -0.564254
v 0.646578 0.564254 -0.513375
v 0.775087 0.705197 -0.888171
v 0.684951 -0.872088 0.090215
v 0.571252 -0.792649 0.213023
v 0.637026 -1.137355 0.172524
v 0.849253 -0.722418 0.446479
v 0.647412 -0.702310 0.296005
v 0.758652 -0.606825 0.237086
v 0.375039 -0.843911 0.383614
v 0.647595 -0.983023 0.434330
v 0.549951 -0.918141 0.567442
v 1.021432 -0.105664 0.802248
v 1.121247 -0.301333 0.808068
v 0.998192 -0.151415 0.559081
v 0.613355 -0.379074 0.721042
v 0.923927 -0.389410 0.851706
v 0.764116 -0.298540 0.955298
v 1.005120 -0.456894 0.446680
v 0.783452 -0.346153 0.516122
v 0.757935 -0.468430 0.453990
v 0.081086 -0.615642 0.783843
v 0.213023 -0.571252 0.792649
v 0.131200 -0.484442 0.864929
v 0.429545 -0.817043 0.695018
v 0.348666 -0.762591 0.827256
v 0.237086 -0.758652 0.606825
v 0.577368 -0.564462 1.270152
v 0.441921 -0.658914 1.000205
v 0.559031 -0.541799 0.904532
v 0.646578 -0.564254 0.513375
v 0.564254 -0.513375 0.646578
v 0.606684 -0.764097 0.666811
v 0.378036 -0.975411 0.138935
v 0.565569 -1.283038 0.000000
v 0.238677 -0.891007 0.386187
v 0.301259 -0.916244 0.264083
v 0.153066 -1.098947 0.000000
v 0.242423 -1.064322 0.146249
v 0.128409 -1.542119 0.207769
v -0.095902 -0.728132 0.927066
v 0.000000 -0.853877 0.864050
v -0.173521 -0.931947 0.575975
v -0.097059 -0.933251 0.741908
v -0.258785 -0.828087 0.662364
v 0.081142 -0.780204 0.620240
v 0.156434 -0.840178 0.519258
v -0.403355 -0.915043 0.000000
v -0.475325 -1.226436 0.174690
v -0.719404 -1.284435 0.194835
v -0.127454 -1.530651 0.206224
v -0.281113 -1.234188 0.169590
v -0.137952 -0.990439 0.000000
v -0.375039 -0.843911 0.383614
v -0.301259 -0.916244 0.264083
v -0.238677 -0.891007 0.386187
v 0.101819 -1.129186 0.494238
v -0.097259 -1.078624 0.472107
v 0.000000 -1.225227 0.338644
v 0.358229 -0.924305 -0.131655
v 0.557948 -0.996169 -0.151108
v 0.082242 -0.987688 -0.133071
v 0.220117 -0.966393 -0.132792
v 0.375039 -0.843911 -0.383614
v 0.301259 -0.916244 -0.264083
v 0.238677 -0.891007 -0.386187
v -0.640326 -1.143248 -0.173418
v -0.358229 -0.924305 -0.131655
v -0.238677 -0.891007 -0.386187
v -0.301259 -0.916244 -0.264083
v -0.375039 -0.843911 -0.383614
v -0.220117 -0.966393 -0.132792
v -0.082242 -0.987688 -0.133071
v 0.081086 -0.615642 -0.783843
v 0.000000 -0.702907 -0.711282
v -0.081086 -0.615642 -0.783843
v 0.156434 -0.840178 -0.519258
v 0.081142 -0.780204 -0.620240
v 0.237086 -0.758652 -0.606825
v -0.237086 -0.758652 -0.606825
v -0.104932 -1.008954 -0.802089
v -0.156434 -0.840178 -0.519258
v 0.000000 -1.239840 -0.342683
v -0.082324 -0.912982 -0.399607
v 0.082324 -0.912982 -0.399607
v 0.649712 -0.901518 -0.242281
v 0.913584 -1.163187 -0.120328
v 0.464880 -0.776116 -0.479666
v 0.789677 -1.198698 -0.529622
v 0.758652 -0.606825 -0.237086
v 0.734649 -0.796945 -0.335891
v 0.849817 -0.722898 -0.446775
v 0.131200 -0.484442 -0.864929
v 0.213023 -0.571252 -0.792649
v 0.749628 -0.726521 -1.212924
v 0.501882 -0.748317 -1.135916
v 0.503628 -0.492371 -1.107932
v 0.323184 -0.706858 -0.766796
v 0.371748 -0.707107 -0.601501
v 1.370485 -0.207888 -0.767600
v 0.792649 -0.213023 -0.571252
v 0.953506 -0.098637 -0.748898
v 0.823088 -0.508696 -0.493016
v 0.783452 -0.346153 -0.516122
v 0.977301 -0.444248 -0.434318
v 0.606825 -0.237086 -0.758652
v 0.702310 -0.296005 -0.647412
v 0.612166 -0.378339 -0.719644
v 0.513375 -0.646578 -0.564254
v 0.624342 -0.568045 -0.715432
v 0.646578 -0.564254 -0.513375
v 0.702907 -0.711282 0.000000
v 0.840178 -0.519258 -0.156434
v 0.780204 -0.620240 -0.081142
v 0.780204 -0.620240 0.081142
v 0.851921 -0.526516 0.158621
v 0.915043 0.000000 -0.403355
v 1.178617 -0.167879 -0.456792
v 0.987688 -0.133071 -0.082242
v 0.966393 -0.132792 -0.220117
v 0.990439 0.000000 -0.137952
v 1.071519 -0.308837 -0.352313
v 0.891007 -0.386187 -0.238677
v 1.228952 -0.175049 0.476300
v 0.915043 0.000000 0.403355
v 1.304787 -0.565531 0.349518
v 1.084557 -0.312594 0.356600
v 0.990439 0.000000 0.137952
v 0.966393 -0.132792 0.220117
v 0.987688 -0.133071 0.082242
v 1.545492 -0.676453 -0.139357
v 1.159746 -0.320546 0.000000
v 1.207279 -0.528419 0.108860
v 0.140792 -0.383089 0.988450
v 0.386187 -0.238677 0.891007
v 0.336837 -0.384255 1.168669
v 0.132792 -0.220117 0.966393
v 0.133071 -0.082242 0.987688
v 0.916771 0.000000 0.905977
v 0.677412 0.204081 1.096075
v 0.900141 0.117759 1.132294
v 0.620240 -0.081142 0.780204
v 0.519258 -0.156434 0.840178
v 0.131655 0.358229 0.924305
v 0.168879 0.104373 1.253464
v 0.132792 0.220117 0.966393
v 0.264083 0.301259 0.916244
v 0.386187 0.238677 0.891007
v 0.399607 -0.082324 0.912982
v 0.399607 0.082324 0.912982
v 0.266405 0.000000 0.963861
v -0.749677 -1.040226 0.279559
v -0.453990 -0.757935 0.468430
v -0.516122 -0.783452 0.346153
v -0.700087 -0.759452 0.320088
v -0.903946 -0.768943 0.475233
v -0.224899 -0.603099 0.836839
v -0.468430 -0.453990 0.757935
v -0.346153 -0.516122 0.783452
v -0.296005 -0.647412 0.702310
v -0.403284 -0.767092 0.652528
v -1.278108 -0.343489 0.921115
v -0.757935 -0.468430 0.453990
v -0.819587 -0.362119 0.539927
v -0.884581 -0.372827 0.815436
v -0.601501 -0.371748 0.707107
v -0.721298 -0.908449 0.792784
v -0.564254 -0.513375 0.646578
v -0.927826 -0.809693 0.736683
v -0.213023 -0.571252 -0.792649
v -0.371748 -0.707107 -0.601501
v -0.296005 -0.647412 -0.702310
v -0.346153 -0.516122 -0.783452
v -0.468430 -0.453990 -0.757935
v -0.934070 -1.296084 -0.348320
v -0.904510 -0.769422 -0.475529
v -0.881540 -0.956291 -0.403051
v -0.516122 -0.783452 -0.346153
v -0.453990 -0.757935 -0.468430
v -0.870116 -0.233842 -0.627081
v -0.601501 -0.371748 -0.707107
v -0.702310 -0.296005 -0.647412
v -0.966144 -0.426872 -0.636475
v -1.043728 -0.645060 -0.625176
v -0.612570 -0.771509 -0.673279
v -1.092020 -0.952982 -0.867052
v -0.605052 -0.550494 -0.693328
v 1.186677 0.000000 -1.172705
v 0.519258 -0.156434 -0.840178
v 0.764447 -0.100008 -0.961604
v 1.091636 0.142812 -1.373178
v 0.622224 0.187454 -1.006780
v 0.141919 -0.386156 -0.996363
v 0.152245 -0.094092 -1.130000
v 0.165500 -0.274333 -1.204419
v 0.336943 -0.384376 -1.169037
v 0.386187 -0.238677 -0.891007
v 0.131655 0.358229 -0.924305
v 0.386187 0.238677 -0.891007
v 0.264083 0.301259 -0.916244
v 0.191304 0.317106 -1.392211
v 0.208863 0.129085 -1.550237
v 0.399607 -0.082324 -0.912982
v 0.266405 0.000000 -0.963861
v 0.399607 0.082324 -0.912982
v 0.924305 0.131655 0.358229
v 0.987688 0.133071 0.082242
v 0.966393 0.132792 0.220117
v 0.916244 0.264083 0.301259
v 0.913340 0.395867 0.244660
v 0.924305 0.131655 -0.358229
v 0.891007 0.386187 -0.238677
v 0.916244 0.264083 -0.301259
v 0.966393 0.132792 -0.220117
v 1.282608 0.172806 -0.106800
v 0.718543 0.727104 0.000000
v 0.840178 0.519258 0.156434
v 0.780204 0.620240 0.081142
v 0.997632 0.793088 -0.103755
v 0.840178 0.519258 -0.156434
v 0.963861 0.266405 0.000000
v 0.912982 0.399607 -0.082324
v 0.912982 0.399607 0.082324

f 1 163 165
f 43 164 163
f 45 165 164
f 163 164 165
f 13 166 168
f 44 167 166
f 43 168 167
f 166 167 168
f 15 169 171
f 45 170 169
f 44 171 170
f 169 170 171
f 43 167 164
f 44 170 167
f 45 164 170
f 167 170 164
f 12 172 174
f 46 173 172
f 48 174 173
f 172 173 174
f 14 175 177
f 47 176 175
f 46 177 176
f 175 176 177
f 13 178 180
f 48 179 178
f 47 180 179
f 178 179 180
f 46 176 173
f 47 179 176
f 48 173 179
f 176 179 173
f 6 181 183
f 49 182 181
f 51 183 182
f 181 182 183
f 15 184 186
f 50 185 184
f 49 186 185
f 184 185 186
f 14 187 189
f 51 188 187
f 50 189 188
f 187 188 189
f 49 185 182
f 50 188 185
f 51 182 188
f 185 188 182
f 13 180 166
f 47 190 180
f 44 166 190
f 180 190 166
f 14 189 175
f 50 191 189
f 47 175 191
f 189 191 175
f 15 171 184
f 44 192 171
f 50 184 192
f 171 192 184
f 47 191 190
f 50 192 191
f 44 190 192
f 191 192 190
f 1 165 194
f 45 193 165
f 53 194 193
f 165 193 194
f 15 195 169
f 52 196 195
f 45 169 196
f 195 196 169
f 17 197 199
f 53 198 197
f 52 199 198
f 197 198 199
f 45 196 193
f 52 198 196
f 53 193 198
f 196 198 193
f 6 200 181
f 54 201 200
f 49 181 201
f 200 201 181
f 16 202 204
f 55 203 202
f 54 204 203
f 202 203 204
f 15 186 206
f 49 205 186
f 55 206 205
f 186 205 206
f 54 203 201
f 55 205 203
f 49 201 205
f 203 205 201
f 2 207 209
f 56 208 207
f 58 209 208
f 207 208 209
f 17 210 212
f 57 211 210
f 56 212 211
f 210 211 212
f 16 213 215
f 58 214 213
f 57 215 214
f 213 214 215
f 56 211 208
f 57 214 211
f 58 208 214
f 211 214 208
f 15 206 195
f 55 216 206
f 52 195 216
f 206 216 195
f 16 215 202
f 57 217 215
f 55 202 217
f 215 217 202
f 17 199 210
f 52 218 199
f 57 210 218
f 199 218 210
f 55 217 216
f 57 218 217
f 52 216 218
f 217 218 216
f 1 194 220
f 53 219 194
f 60 220 219
f 194 219 220
f 17 221 197
f 59 222 221
f 53 197 222
f 221 222 197
f 19 223 225
f 60 224 223
f 59 225 224
f 223 224 225
f 53 222 219
f 59 224 222
f 60 219 224
f 222 224 219
f 2 226 207
f 61 227 226
f 56 207 227
f 226 227 207
f 18 228 230
f 62 229 228
f 61 230 229
f 228 229 230
f 17 212 232
f 56 231 212
f 62 232 231
f 212 231 232
f 61 229 227
f 62 231 229
f 56 227 231
f 229 231 227
f 8 233 235
f 63 234 233
f 65 235 234
f 233 234 235
f 19 236 238
f 64 237 236
f 63 238 237
f 236 237 238
f 18 239 241
f 65 240 239
f 64 241 240
f 239 240 241
f 63 237 234
f 64 240 237
f 65 234 240
f 237 240 234
f 17 232 221
f 62 242 232
f 59 221 242
f 232 242 221
f 18 241 228
f 64 243 241
f 62 228 243
f 241 243 228
f 19 225 236
f 59 244 225
f 64 236 244
f 225 244 236
f 62 243 242
f 64 244 243
f 59 242 244
f 243 244 242
f 1 220 246
f 60 245 220
f 67 246 245
f 220 245 246
f 19 247 223
f 66 248 247
f 60 223 248
f 247 248 223
f 21 249 251
f 67 250 249
f 66 251 250
f 249 250 251
f 60 248 245
f 66 250 248
f 67 245 250
f 248 250 245
f 8 252 233
f 68 253 252
f 63 233 253
f 252 253 233
f 20 254 256
f 69 255 254
f 68 256 255
f 254 255 256
f 19 238 258
f 63 257 238
f 69 258 257
f 238 257 258
f 68 255 253
f 69 257 255
f 63 253 257
f 255 257 253
f 11 259 261
f 70 260 259
f 72 261 260
f 259 260 261
f 21 262 264
f 71 263 262
f 70 264 263
f 262 263 264
f 20 265 267
f 72 266 265
f 71 267 266
f 265 266 267
f 70 263 260
f 71 266 263
f 72 260 266
f 263 266 260
f 19 258 247
f 69 268 258
f 66 247 268
f 258 268 247
f 20 267 254
f 71 269 267
f 69 254 269
f 267 269 254
f 21 251 262
f 66 270 251
f 71 262 270
f 251 270 262
f 69 269 268
f 71 270 269
f 66 268 270
f 269 270 268
f 1 246 163
f 67 271 246
f 43 163 271
f 246 271 163
f 21 272 249
f 73 273 272
f 67 249 273
f 272 273 249
f 13 168 275
f 43 274 168
f 73 275 274
f 168 274 275
f 67 273 271
f 73 274 273
f 43 271 274
f 273 274 271
f 11 276 259
f 74 277 276
f 70 259 277
f 276 277 259
f 22 278 280
f 75 279 278
f 74 280 279
f 278 279 280
f 21 264 282
f 70 281 264
f 75 282 281
f 264 281 282
f 74 279 277
f 75 281 279
f 70 277 281
f 279 281 277
f 12 174 284
f 48 283 174
f 77 284 283
f 174 283 284
f 13 285 178
f 76 286 285
f 48 178 286
f 285 286 178
f 22 287 289
f 77 288 287
f 76 289 288
f 287 288 289
f 48 286 283
f 76 288 286
f 77 283 288
f 286 288 283
f 21 282 272
f 75 290 282
f 73 272 290
f 282 290 272
f 22 289 278
f 76 291 289
f 75 278 291
f 289 291 278
f 13 275 285
f 73 292 275
f 76 285 292
f 275 292 285
f 75 291 290
f 76 292 291
f 73 290 292
f 291 292 290
f 2 209 294
f 58 293 209
f 79 294 293
f 209 293 294
f 16 295 213
f 78 296 295
f 58 213 296
f 295 296 213
f 24 297 299
f 79 298 297
f 78 299 298
f 297 298 299
f 58 296 293
f 78 298 296
f 79 293 298
f 296 298 293
f 6 300 200
f 80 301 300
f 54 200 301
f 300 301 200
f 23 302 304
f 81 303 302
f 80 304 303
f 302 303 304
f 16 204 306
f 54 305 204
f 81 306 305
f 204 305 306
f 80 303 301
f 81 305 303
f 54 301 305
f 303 305 301
f 10 307 309
f 82 308 307
f 84 309 308
f 307 308 309
f 24 310 312
f 83 311 310
f 82 312 311
f 310 311 312
f 23 313 315
f 84 314 313
f 83 315 314
f 313 314 315
f 82 311 308
f 83 314 311
f 84 308 314
f 311 314 308
f 16 306 295
f 81 316 306
f 78 295 316
f 306 316 295
f 23 315 302
f 83 317 315
f 81 302 317
f 315 317 302
f 24 299 310
f 78 318 299
f 83 310 318
f 299 318 310
f 81 317 316
f 83 318 317
f 78 316 318
f 317 318 316
f 6 183 320
f 51 319 183
f 86 320 319
f 183 319 320
f 14 321 187
f 85 322 321
f 51 187 322
f 321 322 187
f 26 323 325
f 86 324 323
f 85 325 324
f 323 324 325
f 51 322 319
f 85 324 322
f 86 319 324
f 322 324 319
f 12 326 172
f 87 327 326
f 46 172 327
f 326 327 172
f 25 328 330
f 88 329 328
f 87 330 329
f 328 329 330
f 14 177 332
f 46 331 177
f 88 332 331
f 177 331 332
f 87 329 327
f 88 331 329
f 46 327 331
f 329 331 327
f 5 333 335
f 89 334 333
f 91 335 334
f 333 334 335
f 26 336 338
f 90 337 336
f 89 338 337
f 336 337 338
f 25 339 341
f 91 340 339
f 90 341 340
f 339 340 341
f 89 337 334
f 90 340 337
f 91 334 340
f 337 340 334
f 14 332 321
f 88 342 332
f 85 321 342
f 332 342 321
f 25 341 328
f 90 343 341
f 88 328 343
f 341 343 328
f 26 325 336
f 85 344 325
f 90 336 344
f 325 344 336
f 88 343 342
f 90 344 343
f 85 342 344
f 343 344 342
f 12 284 346
f 77 345 284
f 93 346 345
f 284 345 346
f 22 347 287
f 92 348 347
f 77 287 348
f 347 348 287
f 28 349 351
f 93 350 349
f 92 351 350
f 349 350 351
f 77 348 345
f 92 350 348
f 93 345 350
f 348 350 345
f 11 352 276
f 94 353 352
f 74 276 353
f 352 353 276
f 27 354 356
f 95 355 354
f 94 356 355
f 354 355 356
f 22 280 358
f 74 357 280
f 95 358 357
f 280 357 358
f 94 355 353
f 95 357 355
f 74 353 357
f 355 357 353
f 3 359 361
f 96 360 359
f 98 361 360
f 359 360 361
f 28 362 364
f 97 363 362
f 96 364 363
f 362 363 364
f 27 365 367
f 98 366 365
f 97 367 366
f 365 366 367
f 96 363 360
f 97 366 363
f 98 360 366
f 363 366 360
f 22 358 347
f 95 368 358
f 92 347 368
f 358 368 347
f 27 367 354
f 97 369 367
f 95 354 369
f 367 369 354
f 28 351 362
f 92 370 351
f 97 362 370
f 351 370 362
f 95 369 368
f 97 370 369
f 92 368 370
f 369 370 368
f 11 261 372
f 72 371 261
f 100 372 371
f 261 371 372
f 20 373 265
f 99 374 373
f 72 265 374
f 373 374 265
f 30 375 377
f 100 376 375
f 99 377 376
f 375 376 377
f 72 374 371
f 99 376 374
f 100 371 376
f 374 376 371
f 8 378 252
f 101 379 378
f 68 252 379
f 378 379 252
f 29 380 382
f 102 381 380
f 101 382 381
f 380 381 382
f 20 256 384
f 68 383 256
f 102 384 383
f 256 383 384
f 101 381 379
f 102 383 381
f 68 379 383
f 381 383 379
f 7 385 387
f 103 386 385
f 105 387 386
f 385 386 387
f 30 388 390
f 104 389 388
f 103 390 389
f 388 389 390
f 29 391 393
f 105 392 391
f 104 393 392
f 391 392 393
f 103 389 386
f 104 392 389
f 105 386 392
f 389 392 386
f 20 384 373
f 102 394 384
f 99 373 394
f 384 394 373
f 29 393 380
f 104 395 393
f 102 380 395
f 393 395 380
f 30 377 388
f 99 396 377
f 104 388 396
f 377 396 388
f 102 395 394
f 104 396 395
f 99 394 396
f 395 396 394
f 8 235 398
f 65 397 235
f 107 398 397
f 235 397 398
f 18 399 239
f 106 400 399
f 65 239 400
f 399 400 239
f 32 401 403
f 107 402 401
f 106 403 402
f 401 402 403
f 65 400 397
f 106 402 400
f 107 397 402
f 400 402 397
f 2 404 226
f 108 405 404
f 61 226 405
f 404 405 226
f 31 406 408
f 109 407 406
f 108 408 407
f 406 407 408
f 18 230 410
f 61 409 230
f 109 410 409
f 230 409 410
f 108 407 405
f 109 409 407
f 61 405 409
f 407 409 405
f 9 411 413
f 110 412 411
f 112 413 412
f 411 412 413
f 32 414 416
f 111 415 414
f 110 416 415
f 414 415 416
f 31 417 419
f 112 418 417
f 111 419 418
f 417 418 419
f 110 415 412
f 111 418 415
f 112 412 418
f 415 418 412
f 18 410 399
f 109 420 410
f 106 399 420
f 410 420 399
f 31 419 406
f 111 421 419
f 109 406 421
f 419 421 406
f 32 403 414
f 106 422 403
f 111 414 422
f 403 422 414
f 109 421 420
f 111 422 421
f 106 420 422
f 421 422 420
f 4 423 425
f 113 424 423
f 115 425 424
f 423 424 425
f 33 426 428
f 114 427 426
f 113 428 427
f 426 427 428
f 35 429 431
f 115 430 429
f 114 431 430
f 429 430 431
f 113 427 424
f 114 430 427
f 115 424 430
f 427 430 424
f 10 432 434
f 116 433 432
f 118 434 433
f 432 433 434
f 34 435 437
f 117 436 435
f 116 437 436
f 435 436 437
f 33 438 440
f 118 439 438
f 117 440 439
f 438 439 440
f 116 436 433
f 117 439 436
f 118 433 439
f 436 439 433
f 5 441 443
f 119 442 441
f 121 443 442
f 441 442 443
f 35 444 446
f 120 445 444
f 119 446 445
f 444 445 446
f 34 447 449
f 121 448 447
f 120 449 448
f 447 448 449
f 119 445 442
f 120 448 445
f 121 442 448
f 445 448 442
f 33 440 426
f 117 450 440
f 114 426 450
f 440 450 426
f 34 449 435
f 120 451 449
f 117 435 451
f 449 451 435
f 35 431 444
f 114 452 431
f 120 444 452
f 431 452 444
f 117 451 450
f 120 452 451
f 114 450 452
f 451 452 450
f 4 425 454
f 115 453 425
f 123 454 453
f 425 453 454
f 35 455 429
f 122 456 455
f 115 429 456
f 455 456 429
f 37 457 459
f 123 458 457
f 122 459 458
f 457 458 459
f 115 456 453
f 122 458 456
f 123 453 458
f 456 458 453
f 5 460 441
f 124 461 460
f 119 441 461
f 460 461 441
f 36 462 464
f 125 463 462
f 124 464 463
f 462 463 464
f 35 446 466
f 119 465 446
f 125 466 465
f 446 465 466
f 124 463 461
f 125 465 463
f 119 461 465
f 463 465 461
f 3 467 469
f 126 468 467
f 128 469 468
f 467 468 469
f 37 470 472
f 127 471 470
f 126 472 471
f 470 471 472
f 36 473 475
f 128 474 473
f 127 475 474
f 473 474 475
f 126 471 468
f 127 474 471
f 128 468 474
f 471 474 468
f 35 466 455
f 125 476 466
f 122 455 476
f 466 476 455
f 36 475 462
f 127 477 475
f 125 462 477
f 475 477 462
f 37 459 470
f 122 478 459
f 127 470 478
f 459 478 470
f 125 477 476
f 127 478 477
f 122 476 478
f 477 478 476
f 4 454 480
f 123 479 454
f 130 480 479
f 454 479 480
f 37 481 457
f 129 482 481
f 123 457 482
f 481 482 457
f 39 483 485
f 130 484 483
f 129 485 484
f 483 484 485
f 123 482 479
f 129 484 482
f 130 479 484
f 482 484 479
f 3 486 467
f 131 487 486
f 126 467 487
f 486 487 467
f 38 488 490
f 132 489 488
f 131 490 489
f 488 489 490
f 37 472 492
f 126 491 472
f 132 492 491
f 472 491 492
f 131 489 487
f 132 491 489
f 126 487 491
f 489 491 487
f 7 493 495
f 133 494 493
f 135 495 494
f 493 494 495
f 39 496 498
f 134 497 496
f 133 498 497
f 496 497 498
f 38 499 501
f 135 500 499
f 134 501 500
f 499 500 501
f 133 497 494
f 134 500 497
f 135 494 500
f 497 500 494
f 37 492 481
f 132 502 492
f 129 481 502
f 492 502 481
f 38 501 488
f 134 503 501
f 132 488 503
f 501 503 488
f 39 485 496
f 129 504 485
f 134 496 504
f 485 504 496
f 132 503 502
f 134 504 503
f 129 502 504
f 503 504 502
f 4 480 506
f 130 505 480
f 137 506 505
f 480 505 506
f 39 507 483
f 136 508 507
f 130 483 508
f 507 508 483
f 41 509 511
f 137 510 509
f 136 511 510
f 509 510 511
f 130 508 505
f 136 510 508
f 137 505 510
f 508 510 505
f 7 512 493
f 138 513 512
f 133 493 513
f 512 513 493
f 40 514 516
f 139 515 514
f 138 516 515
f 514 515 516
f 39 498 518
f 133 517 498
f 139 518 517
f 498 517 518
f 138 515 513
f 139 517 515
f 133 513 517
f 515 517 513
f 9 519 521
f 140 520 519
f 142 521 520
f 519 520 521
f 41 522 524
f 141 523 522
f 140 524 523
f 522 523 524
f 40 525 527
f 142 526 525
f 141 527 526
f 525 526 527
f 140 523 520
f 141 526 523
f 142 520 526
f 523 526 520
f 39 518 507
f 139 528 518
f 136 507 528
f 518 528 507
f 40 527 514
f 141 529 527
f 139 514 529
f 527 529 514
f 41 511 522
f 136 530 511
f 141 522 530
f 511 530 522
f 139 529 528
f 141 530 529
f 136 528 530
f 529 530 528
f 4 506 423
f 137 531 506
f 113 423 531
f 506 531 423
f 41 532 509
f 143 533 532
f 137 509 533
f 532 533 509
f 33 428 535
f 113 534 428
f 143 535 534
f 428 534 535
f 137 533 531
f 143 534 533
f 113 531 534
f 533 534 531
f 9 536 519
f 144 537 536
f 140 519 537
f 536 537 519
f 42 538 540
f 145 539 538
f 144 540 539
f 538 539 540
f 41 524 542
f 140 541 524
f 145 542 541
f 524 541 542
f 144 539 537
f 145 541 539
f 140 537 541
f 539 541 537
f 10 434 544
f 118 543 434
f 147 544 543
f 434 543 544
f 33 545 438
f 146 546 545
f 118 438 546
f 545 546 438
f 42 547 549
f 147 548 547
f 146 549 548
f 547 548 549
f 118 546 543
f 146 548 546
f 147 543 548
f 546 548 543
f 41 542 532
f 145 550 542
f 143 532 550
f 542 550 532
f 42 549 538
f 146 551 549
f 145 538 551
f 549 551 538
f 33 535 545
f 143 552 535
f 146 545 552
f 535 552 545
f 145 551 550
f 146 552 551
f 143 550 552
f 551 552 550
f 5 443 333
f 121 553 443
f 89 333 553
f 443 553 333
f 34 554 447
f 148 555 554
f 121 447 555
f 554 555 447
f 26 338 557
f 89 556 338
f 148 557 556
f 338 556 557
f 121 555 553
f 148 556 555
f 89 553 556
f 555 556 553
f 10 309 432
f 84 558 309
f 116 432 558
f 309 558 432
f 23 559 313
f 149 560 559
f 84 313 560
f 559 560 313
f 34 437 562
f 116 561 437
f 149 562 561
f 437 561 562
f 84 560 558
f 149 561 560
f 116 558 561
f 560 561 558
f 6 320 300
f 86 563 320
f 80 300 563
f 320 563 300
f 26 564 323
f 150 565 564
f 86 323 565
f 564 565 323
f 23 304 567
f 80 566 304
f 150 567 566
f 304 566 567
f 86 565 563
f 150 566 565
f 80 563 566
f 565 566 563
f 34 562 554
f 149 568 562
f 148 554 568
f 562 568 554
f 23 567 559
f 150 569 567
f 149 559 569
f 567 569 559
f 26 557 564
f 148 570 557
f 150 564 570
f 557 570 564
f 149 569 568
f 150 570 569
f 148 568 570
f 569 570 568
f 3 469 359
f 128 571 469
f 96 359 571
f 469 571 359
f 36 572 473
f 151 573 572
f 128 473 573
f 572 573 473
f 28 364 575
f 96 574 364
f 151 575 574
f 364 574 575
f 128 573 571
f 151 574 573
f 96 571 574
f 573 574 571
f 5 335 460
f 91 576 335
f 124 460 576
f 335 576 460
f 25 577 339
f 152 578 577
f 91 339 578
f 577 578 339
f 36 464 580
f 124 579 464
f 152 580 579
f 464 579 580
f 91 578 576
f 152 579 578
f 124 576 579
f 578 579 576
f 12 346 326
f 93 581 346
f 87 326 581
f 346 581 326
f 28 582 349
f 153 583 582
f 93 349 583
f 582 583 349
f 25 330 585
f 87 584 330
f 153 585 584
f 330 584 585
f 93 583 581
f 153 584 583
f 87 581 584
f 583 584 581
f 36 580 572
f 152 586 580
f 151 572 586
f 580 586 572
f 25 585 577
f 153 587 585
f 152 577 587
f 585 587 577
f 28 575 582
f 151 588 575
f 153 582 588
f 575 588 582
f 152 587 586
f 153 588 587
f 151 586 588
f 587 588 586
f 7 495 385
f 135 589 495
f 103 385 589
f 495 589 385
f 38 590 499
f 154 591 590
f 135 499 591
f 590 591 499
f 30 390 593
f 103 592 390
f 154 593 592
f 390 592 593
f 135 591 589
f 154 592 591
f 103 589 592
f 591 592 589
f 3 361 486
f 98 594 361
f 131 486 594
f 361 594 486
f 27 595 365
f 155 596 595
f 98 365 596
f 595 596 365
f 38 490 598
f 131 597 490
f 155 598 597
f 490 597 598
f 98 596 594
f 155 597 596
f 131 594 597
f 596 597 594
f 11 372 352
f 100 599 372
f 94 352 599
f 372 599 352
f 30 600 375
f 156 601 600
f 100 375 601
f 600 601 375
f 27 356 603
f 94 602 356
f 156 603 602
f 356 602 603
f 100 601 599
f 156 602 601
f 94 599 602
f 601 602 599
f 38 598 590
f 155 604 598
f 154 590 604
f 598 604 590
f 27 603 595
f 156 605 603
f 155 595 605
f 603 605 595
f 30 593 600
f 154 606 593
f 156 600 606
f 593 606 600
f 155 605 604
f 156 606 605
f 154 604 606
f 605 606 604
f 9 521 411
f 142 607 521
f 110 411 607
f 521 607 411
f 40 608 525
f 157 609 608
f 142 525 609
f 608 609 525
f 32 416 611
f 110 610 416
f 157 611 610
f 416 610 611
f 142 609 607
f 157 610 609
f 110 607 610
f 609 610 607
f 7 387 512
f 105 612 387
f 138 512 612
f 387 612 512
f 29 613 391
f 158 614 613
f 105 391 614
f 613 614 391
f 40 516 616
f 138 615 516
f 158 616 615
f 516 615 616
f 105 614 612
f 158 615 614
f 138 612 615
f 614 615 612
f 8 398 378
f 107 617 398
f 101 378 617
f 398 617 378
f 32 618 401
f 159 619 618
f 107 401 619
f 618 619 401
f 29 382 621
f 101 620 382
f 159 621 620
f 382 620 621
f 107 619 617
f 159 620 619
f 101 617 620
f 619 620 617
f 40 616 608
f 158 622 616
f 157 608 622
f 616 622 608
f 29 621 613
f 159 623 621
f 158 613 623
f 621 623 613
f 32 611 618
f 157 624 611
f 159 618 624
f 611 624 618
f 158 623 622
f 159 624 623
f 157 622 624
f 623 624 622
f 10 544 307
f 147 625 544
f 82 307 625
f 544 625 307
f 42 626 547
f 160 627 626
f 147 547 627
f 626 627 547
f 24 312 629
f 82 628 312
f 160 629 628
f 312 628 629
f 147 627 625
f 160 628 627
f 82 625 628
f 627 628 625
f 9 413 536
f 112 630 413
f 144 536 630
f 413 630 536
f 31 631 417
f 161 632 631
f 112 417 632
f 631 632 417
f 42 540 634
f 144 633 540
f 161 634 633
f 540 633 634
f 112 632 630
f 161 633 632
f 144 630 633
f 632 633 630
f 2 294 404
f 79 635 294
f 108 404 635
f 294 635 404
f 24 636 297
f 162 637 636
f 79 297 637
f 636 637 297
f 31 408 639
f 108 638 408
f 162 639 638
f 408 638 639
f 79 637 635
f 162 638 637
f 108 635 638
f 637 638 635
f 42 634 626
f 161 640 634
f 160 626 640
f 634 640 626
f 31 639 631
f 162 641 639
f 161 631 641
f 639 641 631
f 24 629 636
f 160 642 629
f 162 636 642
f 629 642 636
f 161 641 640
f 162 642 641
f 160 640 642
f 641 642 640

# Wire edges for engines/tools that read OBJ line elements
l 1 163
l 1 165
l 1 194
l 1 220
l 1 246
l 2 207
l 2 209
l 2 226
l 2 294
l 2 404
l 3 359
l 3 361
l 3 467
l 3 469
l 3 486
l 4 423
l 4 425
l 4 454
l 4 480
l 4 506
l 5 333
l 5 335
l 5 441
l 5 443
l 5 460
l 6 181
l 6 183
l 6 200
l 6 300
l 6 320
l 7 385
l 7 387
l 7 493
l 7 495
l 7 512
l 8 233
l 8 235
l 8 252
l 8 378
l 8 398
l 9 411
l 9 413
l 9 519
l 9 521
l 9 536
l 10 307
l 10 309
l 10 432
l 10 434
l 10 544
l 11 259
l 11 261
l 11 276
l 11 352
l 11 372
l 12 172
l 12 174
l 12 284
l 12 326
l 12 346
l 13 166
l 13 168
l 13 178
l 13 180
l 13 275
l 13 285
l 14 175
l 14 177
l 14 187
l 14 189
l 14 321
l 14 332
l 15 169
l 15 171
l 15 184
l 15 186
l 15 195
l 15 206
l 16 202
l 16 204
l 16 213
l 16 215
l 16 295
l 16 306
l 17 197
l 17 199
l 17 210
l 17 212
l 17 221
l 17 232
l 18 228
l 18 230
l 18 239
l 18 241
l 18 399
l 18 410
l 19 223
l 19 225
l 19 236
l 19 238
l 19 247
l 19 258
l 20 254
l 20 256
l 20 265
l 20 267
l 20 373
l 20 384
l 21 249
l 21 251
l 21 262
l 21 264
l 21 272
l 21 282
l 22 278
l 22 280
l 22 287
l 22 289
l 22 347
l 22 358
l 23 302
l 23 304
l 23 313
l 23 315
l 23 559
l 23 567
l 24 297
l 24 299
l 24 310
l 24 312
l 24 629
l 24 636
l 25 328
l 25 330
l 25 339
l 25 341
l 25 577
l 25 585
l 26 323
l 26 325
l 26 336
l 26 338
l 26 557
l 26 564
l 27 354
l 27 356
l 27 365
l 27 367
l 27 595
l 27 603
l 28 349
l 28 351
l 28 362
l 28 364
l 28 575
l 28 582
l 29 380
l 29 382
l 29 391
l 29 393
l 29 613
l 29 621
l 30 375
l 30 377
l 30 388
l 30 390
l 30 593
l 30 600
l 31 406
l 31 408
l 31 417
l 31 419
l 31 631
l 31 639
l 32 401
l 32 403
l 32 414
l 32 416
l 32 611
l 32 618
l 33 426
l 33 428
l 33 438
l 33 440
l 33 535
l 33 545
l 34 435
l 34 437
l 34 447
l 34 449
l 34 554
l 34 562
l 35 429
l 35 431
l 35 444
l 35 446
l 35 455
l 35 466
l 36 462
l 36 464
l 36 473
l 36 475
l 36 572
l 36 580
l 37 457
l 37 459
l 37 470
l 37 472
l 37 481
l 37 492
l 38 488
l 38 490
l 38 499
l 38 501
l 38 590
l 38 598
l 39 483
l 39 485
l 39 496
l 39 498
l 39 507
l 39 518
l 40 514
l 40 516
l 40 525
l 40 527
l 40 608
l 40 616
l 41 509
l 41 511
l 41 522
l 41 524
l 41 532
l 41 542
l 42 538
l 42 540
l 42 547
l 42 549
l 42 626
l 42 634
l 43 163
l 43 164
l 43 167
l 43 168
l 43 271
l 43 274
l 44 166
l 44 167
l 44 170
l 44 171
l 44 190
l 44 192
l 45 164
l 45 165
l 45 169
l 45 170
l 45 193
l 45 196
l 46 172
l 46 173
l 46 176
l 46 177
l 46 327
l 46 331
l 47 175
l 47 176
l 47 179
l 47 180
l 47 190
l 47 191
l 48 173
l 48 174
l 48 178
l 48 179
l 48 283
l 48 286
l 49 181
l 49 182
l 49 185
l 49 186
l 49 201
l 49 205
l 50 184
l 50 185
l 50 188
l 50 189
l 50 191
l 50 192
l 51 182
l 51 183
l 51 187
l 51 188
l 51 319
l 51 322
l 52 195
l 52 196
l 52 198
l 52 199
l 52 216
l 52 218
l 53 193
l 53 194
l 53 197
l 53 198
l 53 219
l 53 222
l 54 200
l 54 201
l 54 203
l 54 204
l 54 301
l 54 305
l 55 202
l 55 203
l 55 205
l 55 206
l 55 216
l 55 217
l 56 207
l 56 208
l 56 211
l 56 212
l 56 227
l 56 231
l 57 210
l 57 211
l 57 214
l 57 215
l 57 217
l 57 218
l 58 208
l 58 209
l 58 213
l 58 214
l 58 293
l 58 296
l 59 221
l 59 222
l 59 224
l 59 225
l 59 242
l 59 244
l 60 219
l 60 220
l 60 223
l 60 224
l 60 245
l 60 248
l 61 226
l 61 227
l 61 229
l 61 230
l 61 405
l 61 409
l 62 228
l 62 229
l 62 231
l 62 232
l 62 242
l 62 243
l 63 233
l 63 234
l 63 237
l 63 238
l 63 253
l 63 257
l 64 236
l 64 237
l 64 240
l 64 241
l 64 243
l 64 244
l 65 234
l 65 235
l 65 239
l 65 240
l 65 397
l 65 400
l 66 247
l 66 248
l 66 250
l 66 251
l 66 268
l 66 270
l 67 245
l 67 246
l 67 249
l 67 250
l 67 271
l 67 273
l 68 252
l 68 253
l 68 255
l 68 256
l 68 379
l 68 383
l 69 254
l 69 255
l 69 257
l 69 258
l 69 268
l 69 269
l 70 259
l 70 260
l 70 263
l 70 264
l 70 277
l 70 281
l 71 262
l 71 263
l 71 266
l 71 267
l 71 269
l 71 270
l 72 260
l 72 261
l 72 265
l 72 266
l 72 371
l 72 374
l 73 272
l 73 273
l 73 274
l 73 275
l 73 290
l 73 292
l 74 276
l 74 277
l 74 279
l 74 280
l 74 353
l 74 357
l 75 278
l 75 279
l 75 281
l 75 282
l 75 290
l 75 291
l 76 285
l 76 286
l 76 288
l 76 289
l 76 291
l 76 292
l 77 283
l 77 284
l 77 287
l 77 288
l 77 345
l 77 348
l 78 295
l 78 296
l 78 298
l 78 299
l 78 316
l 78 318
l 79 293
l 79 294
l 79 297
l 79 298
l 79 635
l 79 637
l 80 300
l 80 301
l 80 303
l 80 304
l 80 563
l 80 566
l 81 302
l 81 303
l 81 305
l 81 306
l 81 316
l 81 317
l 82 307
l 82 308
l 82 311
l 82 312
l 82 625
l 82 628
l 83 310
l 83 311
l 83 314
l 83 315
l 83 317
l 83 318
l 84 308
l 84 309
l 84 313
l 84 314
l 84 558
l 84 560
l 85 321
l 85 322
l 85 324
l 85 325
l 85 342
l 85 344
l 86 319
l 86 320
l 86 323
l 86 324
l 86 563
l 86 565
l 87 326
l 87 327
l 87 329
l 87 330
l 87 581
l 87 584
l 88 328
l 88 329
l 88 331
l 88 332
l 88 342
l 88 343
l 89 333
l 89 334
l 89 337
l 89 338
l 89 553
l 89 556
l 90 336
l 90 337
l 90 340
l 90 341
l 90 343
l 90 344
l 91 334
l 91 335
l 91 339
l 91 340
l 91 576
l 91 578
l 92 347
l 92 348
l 92 350
l 92 351
l 92 368
l 92 370
l 93 345
l 93 346
l 93 349
l 93 350
l 93 581
l 93 583
l 94 352
l 94 353
l 94 355
l 94 356
l 94 599
l 94 602
l 95 354
l 95 355
l 95 357
l 95 358
l 95 368
l 95 369
l 96 359
l 96 360
l 96 363
l 96 364
l 96 571
l 96 574
l 97 362
l 97 363
l 97 366
l 97 367
l 97 369
l 97 370
l 98 360
l 98 361
l 98 365
l 98 366
l 98 594
l 98 596
l 99 373
l 99 374
l 99 376
l 99 377
l 99 394
l 99 396
l 100 371
l 100 372
l 100 375
l 100 376
l 100 599
l 100 601
l 101 378
l 101 379
l 101 381
l 101 382
l 101 617
l 101 620
l 102 380
l 102 381
l 102 383
l 102 384
l 102 394
l 102 395
l 103 385
l 103 386
l 103 389
l 103 390
l 103 589
l 103 592
l 104 388
l 104 389
l 104 392
l 104 393
l 104 395
l 104 396
l 105 386
l 105 387
l 105 391
l 105 392
l 105 612
l 105 614
l 106 399
l 106 400
l 106 402
l 106 403
l 106 420
l 106 422
l 107 397
l 107 398
l 107 401
l 107 402
l 107 617
l 107 619
l 108 404
l 108 405
l 108 407
l 108 408
l 108 635
l 108 638
l 109 406
l 109 407
l 109 409
l 109 410
l 109 420
l 109 421
l 110 411
l 110 412
l 110 415
l 110 416
l 110 607
l 110 610
l 111 414
l 111 415
l 111 418
l 111 419
l 111 421
l 111 422
l 112 412
l 112 413
l 112 417
l 112 418
l 112 630
l 112 632
l 113 423
l 113 424
l 113 427
l 113 428
l 113 531
l 113 534
l 114 426
l 114 427
l 114 430
l 114 431
l 114 450
l 114 452
l 115 424
l 115 425
l 115 429
l 115 430
l 115 453
l 115 456
l 116 432
l 116 433
l 116 436
l 116 437
l 116 558
l 116 561
l 117 435
l 117 436
l 117 439
l 117 440
l 117 450
l 117 451
l 118 433
l 118 434
l 118 438
l 118 439
l 118 543
l 118 546
l 119 441
l 119 442
l 119 445
l 119 446
l 119 461
l 119 465
l 120 444
l 120 445
l 120 448
l 120 449
l 120 451
l 120 452
l 121 442
l 121 443
l 121 447
l 121 448
l 121 553
l 121 555
l 122 455
l 122 456
l 122 458
l 122 459
l 122 476
l 122 478
l 123 453
l 123 454
l 123 457
l 123 458
l 123 479
l 123 482
l 124 460
l 124 461
l 124 463
l 124 464
l 124 576
l 124 579
l 125 462
l 125 463
l 125 465
l 125 466
l 125 476
l 125 477
l 126 467
l 126 468
l 126 471
l 126 472
l 126 487
l 126 491
l 127 470
l 127 471
l 127 474
l 127 475
l 127 477
l 127 478
l 128 468
l 128 469
l 128 473
l 128 474
l 128 571
l 128 573
l 129 481
l 129 482
l 129 484
l 129 485
l 129 502
l 129 504
l 130 479
l 130 480
l 130 483
l 130 484
l 130 505
l 130 508
l 131 486
l 131 487
l 131 489
l 131 490
l 131 594
l 131 597
l 132 488
l 132 489
l 132 491
l 132 492
l 132 502
l 132 503
l 133 493
l 133 494
l 133 497
l 133 498
l 133 513
l 133 517
l 134 496
l 134 497
l 134 500
l 134 501
l 134 503
l 134 504
l 135 494
l 135 495
l 135 499
l 135 500
l 135 589
l 135 591
l 136 507
l 136 508
l 136 510
l 136 511
l 136 528
l 136 530
l 137 505
l 137 506
l 137 509
l 137 510
l 137 531
l 137 533
l 138 512
l 138 513
l 138 515
l 138 516
l 138 612
l 138 615
l 139 514
l 139 515
l 139 517
l 139 518
l 139 528
l 139 529
l 140 519
l 140 520
l 140 523
l 140 524
l 140 537
l 140 541
l 141 522
l 141 523
l 141 526
l 141 527
l 141 529
l 141 530
l 142 520
l 142 521
l 142 525
l 142 526
l 142 607
l 142 609
l 143 532
l 143 533
l 143 534
l 143 535
l 143 550
l 143 552
l 144 536
l 144 537
l 144 539
l 144 540
l 144 630
l 144 633
l 145 538
l 145 539
l 145 541
l 145 542
l 145 550
l 145 551
l 146 545
l 146 546
l 146 548
l 146 549
l 146 551
l 146 552
l 147 543
l 147 544
l 147 547
l 147 548
l 147 625
l 147 627
l 148 554
l 148 555
l 148 556
l 148 557
l 148 568
l 148 570
l 149 559
l 149 560
l 149 561
l 149 562
l 149 568
l 149 569
l 150 564
l 150 565
l 150 566
l 150 567
l 150 569
l 150 570
l 151 572
l 151 573
l 151 574
l 151 575
l 151 586
l 151 588
l 152 577
l 152 578
l 152 579
l 152 580
l 152 586
l 152 587
l 153 582
l 153 583
l 153 584
l 153 585
l 153 587
l 153 588
l 154 590
l 154 591
l 154 592
l 154 593
l 154 604
l 154 606
l 155 595
l 155 596
l 155 597
l 155 598
l 155 604
l 155 605
l 156 600
l 156 601
l 156 602
l 156 603
l 156 605
l 156 606
l 157 608
l 157 609
l 157 610
l 157 611
l 157 622
l 157 624
l 158 613
l 158 614
l 158 615
l 158 616
l 158 622
l 158 623
l 159 618
l 159 619
l 159 620
l 159 621
l 159 623
l 159 624
l 160 626
l 160 627
l 160 628
l 160 629
l 160 640
l 160 642
l 161 631
l 161 632
l 161 633
l 161 634
l 161 640
l 161 641
l 162 636
l 162 637
l 162 638
l 162 639
l 162 641
l 162 642
l 163 164
l 163 165
l 163 246
l 163 271
l 164 165
l 164 167
l 164 170
l 165 193
l 165 194
l 166 167
l 166 168
l 166 180
l 166 190
l 167 168
l 167 170
l 168 274
l 168 275
l 169 170
l 169 171
l 169 195
l 169 196
l 170 171
l 171 184
l 171 192
l 172 173
l 172 174
l 172 326
l 172 327
l 173 174
l 173 176
l 173 179
l 174 283
l 174 284
l 175 176
l 175 177
l 175 189
l 175 191
l 176 177
l 176 179
l 177 331
l 177 332
l 178 179
l 178 180
l 178 285
l 178 286
l 179 180
l 180 190
l 181 182
l 181 183
l 181 200
l 181 201
l 182 183
l 182 185
l 182 188
l 183 319
l 183 320
l 184 185
l 184 186
l 184 192
l 185 186
l 185 188
l 186 205
l 186 206
l 187 188
l 187 189
l 187 321
l 187 322
l 188 189
l 189 191
l 190 191
l 190 192
l 191 192
l 193 194
l 193 196
l 193 198
l 194 219
l 194 220
l 195 196
l 195 206
l 195 216
l 196 198
l 197 198
l 197 199
l 197 221
l 197 222
l 198 199
l 199 210
l 199 218
l 200 201
l 200 300
l 200 301
l 201 203
l 201 205
l 202 203
l 202 204
l 202 215
l 202 217
l 203 204
l 203 205
l 204 305
l 204 306
l 205 206
l 206 216
l 207 208
l 207 209
l 207 226
l 207 227
l 208 209
l 208 211
l 208 214
l 209 293
l 209 294
l 210 211
l 210 212
l 210 218
l 211 212
l 211 214
l 212 231
l 212 232
l 213 214
l 213 215
l 213 295
l 213 296
l 214 215
l 215 217
l 216 217
l 216 218
l 217 218
l 219 220
l 219 222
l 219 224
l 220 245
l 220 246
l 221 222
l 221 232
l 221 242
l 222 224
l 223 224
l 223 225
l 223 247
l 223 248
l 224 225
l 225 236
l 225 244
l 226 227
l 226 404
l 226 405
l 227 229
l 227 231
l 228 229
l 228 230
l 228 241
l 228 243
l 229 230
l 229 231
l 230 409
l 230 410
l 231 232
l 232 242
l 233 234
l 233 235
l 233 252
l 233 253
l 234 235
l 234 237
l 234 240
l 235 397
l 235 398
l 236 237
l 236 238
l 236 244
l 237 238
l 237 240
l 238 257
l 238 258
l 239 240
l 239 241
l 239 399
l 239 400
l 240 241
l 241 243
l 242 243
l 242 244
l 243 244
l 245 246
l 245 248
l 245 250
l 246 271
l 247 248
l 247 258
l 247 268
l 248 250
l 249 250
l 249 251
l 249 272
l 249 273
l 250 251
l 251 262
l 251 270
l 252 253
l 252 378
l 252 379
l 253 255
l 253 257
l 254 255
l 254 256
l 254 267
l 254 269
l 255 256
l 255 257
l 256 383
l 256 384
l 257 258
l 258 268
l 259 260
l 259 261
l 259 276
l 259 277
l 260 261
l 260 263
l 260 266
l 261 371
l 261 372
l 262 263
l 262 264
l 262 270
l 263 264
l 263 266
l 264 281
l 264 282
l 265 266
l 265 267
l 265 373
l 265 374
l 266 267
l 267 269
l 268 269
l 268 270
l 269 270
l 271 273
l 271 274
l 272 273
l 272 282
l 272 290
l 273 274
l 274 275
l 275 285
l 275 292
l 276 277
l 276 352
l 276 353
l 277 279
l 277 281
l 278 279
l 278 280
l 278 289
l 278 291
l 279 280
l 279 281
l 280 357
l 280 358
l 281 282
l 282 290
l 283 284
l 283 286
l 283 288
l 284 345
l 284 346
l 285 286
l 285 292
l 286 288
l 287 288
l 287 289
l 287 347
l 287 348
l 288 289
l 289 291
l 290 291
l 290 292
l 291 292
l 293 294
l 293 296
l 293 298
l 294 404
l 294 635
l 295 296
l 295 306
l 295 316
l 296 298
l 297 298
l 297 299
l 297 636
l 297 637
l 298 299
l 299 310
l 299 318
l 300 301
l 300 320
l 300 563
l 301 303
l 301 305
l 302 303
l 302 304
l 302 315
l 302 317
l 303 304
l 303 305
l 304 566
l 304 567
l 305 306
l 306 316
l 307 308
l 307 309
l 307 544
l 307 625
l 308 309
l 308 311
l 308 314
l 309 432
l 309 558
l 310 311
l 310 312
l 310 318
l 311 312
l 311 314
l 312 628
l 312 629
l 313 314
l 313 315
l 313 559
l 313 560
l 314 315
l 315 317
l 316 317
l 316 318
l 317 318
l 319 320
l 319 322
l 319 324
l 320 563
l 321 322
l 321 332
l 321 342
l 322 324
l 323 324
l 323 325
l 323 564
l 323 565
l 324 325
l 325 336
l 325 344
l 326 327
l 326 346
l 326 581
l 327 329
l 327 331
l 328 329
l 328 330
l 328 341
l 328 343
l 329 330
l 329 331
l 330 584
l 330 585
l 331 332
l 332 342
l 333 334
l 333 335
l 333 443
l 333 553
l 334 335
l 334 337
l 334 340
l 335 460
l 335 576
l 336 337
l 336 338
l 336 344
l 337 338
l 337 340
l 338 556
l 338 557
l 339 340
l 339 341
l 339 577
l 339 578
l 340 341
l 341 343
l 342 343
l 342 344
l 343 344
l 345 346
l 345 348
l 345 350
l 346 581
l 347 348
l 347 358
l 347 368
l 348 350
l 349 350
l 349 351
l 349 582
l 349 583
l 350 351
l 351 362
l 351 370
l 352 353
l 352 372
l 352 599
l 353 355
l 353 357
l 354 355
l 354 356
l 354 367
l 354 369
l 355 356
l 355 357
l 356 602
l 356 603
l 357 358
l 358 368
l 359 360
l 359 361
l 359 469
l 359 571
l 360 361
l 360 363
l 360 366
l 361 486
l 361 594
l 362 363
l 362 364
l 362 370
l 363 364
l 363 366
l 364 574
l 364 575
l 365 366
l 365 367
l 365 595
l 365 596
l 366 367
l 367 369
l 368 369
l 368 370
l 369 370
l 371 372
l 371 374
l 371 376
l 372 599
l 373 374
l 373 384
l 373 394
l 374 376
l 375 376
l 375 377
l 375 600
l 375 601
l 376 377
l 377 388
l 377 396
l 378 379
l 378 398
l 378 617
l 379 381
l 379 383
l 380 381
l 380 382
l 380 393
l 380 395
l 381 382
l 381 383
l 382 620
l 382 621
l 383 384
l 384 394
l 385 386
l 385 387
l 385 495
l 385 589
l 386 387
l 386 389
l 386 392
l 387 512
l 387 612
l 388 389
l 388 390
l 388 396
l 389 390
l 389 392
l 390 592
l 390 593
l 391 392
l 391 393
l 391 613
l 391 614
l 392 393
l 393 395
l 394 395
l 394 396
l 395 396
l 397 398
l 397 400
l 397 402
l 398 617
l 399 400
l 399 410
l 399 420
l 400 402
l 401 402
l 401 403
l 401 618
l 401 619
l 402 403
l 403 414
l 403 422
l 404 405
l 404 635
l 405 407
l 405 409
l 406 407
l 406 408
l 406 419
l 406 421
l 407 408
l 407 409
l 408 638
l 408 639
l 409 410
l 410 420
l 411 412
l 411 413
l 411 521
l 411 607
l 412 413
l 412 415
l 412 418
l 413 536
l 413 630
l 414 415
l 414 416
l 414 422
l 415 416
l 415 418
l 416 610
l 416 611
l 417 418
l 417 419
l 417 631
l 417 632
l 418 419
l 419 421
l 420 421
l 420 422
l 421 422
l 423 424
l 423 425
l 423 506
l 423 531
l 424 425
l 424 427
l 424 430
l 425 453
l 425 454
l 426 427
l 426 428
l 426 440
l 426 450
l 427 428
l 427 430
l 428 534
l 428 535
l 429 430
l 429 431
l 429 455
l 429 456
l 430 431
l 431 444
l 431 452
l 432 433
l 432 434
l 432 558
l 433 434
l 433 436
l 433 439
l 434 543
l 434 544
l 435 436
l 435 437
l 435 449
l 435 451
l 436 437
l 436 439
l 437 561
l 437 562
l 438 439
l 438 440
l 438 545
l 438 546
l 439 440
l 440 450
l 441 442
l 441 443
l 441 460
l 441 461
l 442 443
l 442 445
l 442 448
l 443 553
l 444 445
l 444 446
l 444 452
l 445 446
l 445 448
l 446 465
l 446 466
l 447 448
l 447 449
l 447 554
l 447 555
l 448 449
l 449 451
l 450 451
l 450 452
l 451 452
l 453 454
l 453 456
l 453 458
l 454 479
l 454 480
l 455 456
l 455 466
l 455 476
l 456 458
l 457 458
l 457 459
l 457 481
l 457 482
l 458 459
l 459 470
l 459 478
l 460 461
l 460 576
l 461 463
l 461 465
l 462 463
l 462 464
l 462 475
l 462 477
l 463 464
l 463 465
l 464 579
l 464 580
l 465 466
l 466 476
l 467 468
l 467 469
l 467 486
l 467 487
l 468 469
l 468 471
l 468 474
l 469 571
l 470 471
l 470 472
l 470 478
l 471 472
l 471 474
l 472 491
l 472 492
l 473 474
l 473 475
l 473 572
l 473 573
l 474 475
l 475 477
l 476 477
l 476 478
l 477 478
l 479 480
l 479 482
l 479 484
l 480 505
l 480 506
l 481 482
l 481 492
l 481 502
l 482 484
l 483 484
l 483 485
l 483 507
l 483 508
l 484 485
l 485 496
l 485 504
l 486 487
l 486 594
l 487 489
l 487 491
l 488 489
l 488 490
l 488 501
l 488 503
l 489 490
l 489 491
l 490 597
l 490 598
l 491 492
l 492 502
l 493 494
l 493 495
l 493 512
l 493 513
l 494 495
l 494 497
l 494 500
l 495 589
l 496 497
l 496 498
l 496 504
l 497 498
l 497 500
l 498 517
l 498 518
l 499 500
l 499 501
l 499 590
l 499 591
l 500 501
l 501 503
l 502 503
l 502 504
l 503 504
l 505 506
l 505 508
l 505 510
l 506 531
l 507 508
l 507 518
l 507 528
l 508 510
l 509 510
l 509 511
l 509 532
l 509 533
l 510 511
l 511 522
l 511 530
l 512 513
l 512 612
l 513 515
l 513 517
l 514 515
l 514 516
l 514 527
l 514 529
l 515 516
l 515 517
l 516 615
l 516 616
l 517 518
l 518 528
l 519 520
l 519 521
l 519 536
l 519 537
l 520 521
l 520 523
l 520 526
l 521 607
l 522 523
l 522 524
l 522 530
l 523 524
l 523 526
l 524 541
l 524 542
l 525 526
l 525 527
l 525 608
l 525 609
l 526 527
l 527 529
l 528 529
l 528 530
l 529 530
l 531 533
l 531 534
l 532 533
l 532 542
l 532 550
l 533 534
l 534 535
l 535 545
l 535 552
l 536 537
l 536 630
l 537 539
l 537 541
l 538 539
l 538 540
l 538 549
l 538 551
l 539 540
l 539 541
l 540 633
l 540 634
l 541 542
l 542 550
l 543 544
l 543 546
l 543 548
l 544 625
l 545 546
l 545 552
l 546 548
l 547 548
l 547 549
l 547 626
l 547 627
l 548 549
l 549 551
l 550 551
l 550 552
l 551 552
l 553 555
l 553 556
l 554 555
l 554 562
l 554 568
l 555 556
l 556 557
l 557 564
l 557 570
l 558 560
l 558 561
l 559 560
l 559 567
l 559 569
l 560 561
l 561 562
l 562 568
l 563 565
l 563 566
l 564 565
l 564 570
l 565 566
l 566 567
l 567 569
l 568 569
l 568 570
l 569 570
l 571 573
l 571 574
l 572 573
l 572 580
l 572 586
l 573 574
l 574 575
l 575 582
l 575 588
l 576 578
l 576 579
l 577 578
l 577 585
l 577 587
l 578 579
l 579 580
l 580 586
l 581 583
l 581 584
l 582 583
l 582 588
l 583 584
l 584 585
l 585 587
l 586 587
l 586 588
l 587 588
l 589 591
l 589 592
l 590 591
l 590 598
l 590 604
l 591 592
l 592 593
l 593 600
l 593 606
l 594 596
l 594 597
l 595 596
l 595 603
l 595 605
l 596 597
l 597 598
l 598 604
l 599 601
l 599 602
l 600 601
l 600 606
l 601 602
l 602 603
l 603 605
l 604 605
l 604 606
l 605 606
l 607 609
l 607 610
l 608 609
l 608 616
l 608 622
l 609 610
l 610 611
l 611 618
l 611 624
l 612 614
l 612 615
l 613 614
l 613 621
l 613 623
l 614 615
l 615 616
l 616 622
l 617 619
l 617 620
l 618 619
l 618 624
l 619 620
l 620 621
l 621 623
l 622 623
l 622 624
l 623 624
l 625 627
l 625 628
l 626 627
l 626 634
l 626 640
l 627 628
l 628 629
l 629 636
l 629 642
l 630 632
l 630 633
l 631 632
l 631 639
l 631 641
l 632 633
l 633 634
l 634 640
l 635 637
l 635 638
l 636 637
l 636 642
l 637 638
l 638 639
l 639 641
l 640 641
l 640 642
l 641 642
