# Blender 5.1.2
# www.blender.org
mtllib Untitled.mtl
g Sphere_Sphere
v 0.000000 1.000000 0.000000
v 0.000000 0.831470 -0.555570
v 0.000000 0.555570 -0.831470
v 0.000000 0.195090 -0.980785
v 0.000000 0.000000 -1.000000
v 0.000000 -0.195090 -0.980785
v 0.000000 -0.555570 -0.831470
v 0.000000 -1.000000 0.000000
v 0.038060 0.980785 -0.191342
v 0.074658 0.923880 -0.375330
v 0.108386 0.831470 -0.544895
v 0.137950 0.707107 -0.693520
v 0.162212 0.555570 -0.815493
v 0.180240 0.382683 -0.906127
v 0.191342 0.195090 -0.961940
v 0.195090 0.000000 -0.980785
v 0.191342 -0.195090 -0.961940
v 0.180240 -0.382683 -0.906127
v 0.162212 -0.555570 -0.815493
v 0.137950 -0.707107 -0.693520
v 0.108386 -0.831470 -0.544895
v 0.074658 -0.923880 -0.375330
v 0.038060 -0.980785 -0.191342
v 0.074658 0.980785 -0.180240
v 0.146447 0.923880 -0.353553
v 0.212608 0.831470 -0.513280
v 0.270598 0.707107 -0.653281
v 0.318190 0.555570 -0.768178
v 0.353553 0.382683 -0.853553
v 0.375330 0.195090 -0.906127
v 0.382683 0.000000 -0.923879
v 0.375330 -0.195090 -0.906127
v 0.353553 -0.382683 -0.853553
v 0.318190 -0.555570 -0.768178
v 0.270598 -0.707107 -0.653281
v 0.212608 -0.831470 -0.513280
v 0.146447 -0.923880 -0.353553
v 0.074658 -0.980785 -0.180240
v 0.108386 0.980785 -0.162212
v 0.212608 0.923880 -0.318190
v 0.308658 0.831470 -0.461940
v 0.392847 0.707107 -0.587938
v 0.461940 0.555570 -0.691342
v 0.513280 0.382683 -0.768178
v 0.544895 0.195090 -0.815493
v 0.555570 0.000000 -0.831469
v 0.544895 -0.195090 -0.815493
v 0.513280 -0.382683 -0.768178
v 0.461940 -0.555570 -0.691342
v 0.392847 -0.707107 -0.587938
v 0.308658 -0.831470 -0.461940
v 0.212608 -0.923880 -0.318190
v 0.108386 -0.980785 -0.162212
v 0.137950 0.980785 -0.137950
v 0.270598 0.923880 -0.270598
v 0.392847 0.831470 -0.392847
v 0.500000 0.707107 -0.500000
v 0.587938 0.555570 -0.587938
v 0.653281 0.382683 -0.653281
v 0.693520 0.195090 -0.693520
v 0.707107 0.000000 -0.707107
v 0.693520 -0.195090 -0.693520
v 0.653281 -0.382683 -0.653281
v 0.587938 -0.555570 -0.587938
v 0.500000 -0.707107 -0.500000
v 0.392847 -0.831470 -0.392847
v 0.270598 -0.923880 -0.270598
v 0.137950 -0.980785 -0.137950
v 0.162212 0.980785 -0.108386
v 0.318190 0.923880 -0.212608
v 0.461940 0.831470 -0.308658
v 0.587938 0.707107 -0.392847
v 0.691342 0.555570 -0.461940
v 0.768178 0.382683 -0.513280
v 0.815493 0.195090 -0.544895
v 0.831470 0.000000 -0.555570
v 0.815493 -0.195090 -0.544895
v 0.768178 -0.382683 -0.513280
v 0.691342 -0.555570 -0.461940
v 0.587938 -0.707107 -0.392847
v 0.461940 -0.831470 -0.308658
v 0.318190 -0.923880 -0.212608
v 0.162212 -0.980785 -0.108386
v 0.180240 0.980785 -0.074658
v 0.353553 0.923880 -0.146447
v 0.513280 0.831470 -0.212607
v 0.653281 0.707107 -0.270598
v 0.768178 0.555570 -0.318190
v 0.853553 0.382683 -0.353553
v 0.906127 0.195090 -0.375330
v 0.923879 0.000000 -0.382683
v 0.906127 -0.195090 -0.375330
v 0.853553 -0.382683 -0.353553
v 0.768178 -0.555570 -0.318190
v 0.653281 -0.707107 -0.270598
v 0.513280 -0.831470 -0.212607
v 0.353553 -0.923880 -0.146447
v 0.180240 -0.980785 -0.074658
v 0.191342 0.980785 -0.038060
v 0.375330 0.923880 -0.074658
v 0.544895 0.831470 -0.108386
v 0.693520 0.707107 -0.137950
v 0.815493 0.555570 -0.162212
v 0.906127 0.382683 -0.180240
v 0.961940 0.195090 -0.191342
v 0.980785 0.000000 -0.195090
v 0.961940 -0.195090 -0.191342
v 0.906127 -0.382683 -0.180240
v 0.815493 -0.555570 -0.162212
v 0.693520 -0.707107 -0.137950
v 0.544895 -0.831470 -0.108386
v 0.375330 -0.923880 -0.074658
v 0.191342 -0.980785 -0.038060
v 0.195090 0.980785 0.000000
v 0.382683 0.923880 0.000000
v 0.555570 0.831470 0.000000
v 0.707107 0.707107 -0.000000
v 0.831469 0.555570 0.000000
v 0.923879 0.382683 -0.000000
v 0.980785 0.195090 0.000000
v 1.000000 0.000000 0.000000
v 0.980785 -0.195090 0.000000
v 0.923879 -0.382683 -0.000000
v 0.831469 -0.555570 0.000000
v 0.707107 -0.707107 -0.000000
v 0.555570 -0.831470 0.000000
v 0.382683 -0.923880 0.000000
v 0.195090 -0.980785 0.000000
v 0.191342 0.980785 0.038060
v 0.375330 0.923880 0.074658
v 0.544895 0.831470 0.108386
v 0.693520 0.707107 0.137950
v 0.815493 0.555570 0.162212
v 0.906127 0.382683 0.180240
v 0.961940 0.195090 0.191342
v 0.980785 0.000000 0.195090
v 0.961940 -0.195090 0.191342
v 0.906127 -0.382683 0.180240
v 0.815493 -0.555570 0.162212
v 0.693520 -0.707107 0.137950
v 0.544895 -0.831470 0.108386
v 0.375330 -0.923880 0.074658
v 0.191342 -0.980785 0.038060
v 0.180240 0.980785 0.074658
v 0.353553 0.923880 0.146447
v 0.513280 0.831470 0.212608
v 0.653281 0.707107 0.270598
v 0.768178 0.555570 0.318190
v 0.853553 0.382683 0.353553
v 0.906127 0.195090 0.375330
v 0.923879 0.000000 0.382683
v 0.906127 -0.195090 0.375330
v 0.853553 -0.382683 0.353553
v 0.768178 -0.555570 0.318190
v 0.653281 -0.707107 0.270598
v 0.513280 -0.831470 0.212608
v 0.353553 -0.923880 0.146447
v 0.180240 -0.980785 0.074658
v 0.162212 0.980785 0.108386
v 0.318190 0.923880 0.212608
v 0.461940 0.831470 0.308658
v 0.587938 0.707107 0.392847
v 0.691341 0.555570 0.461940
v 0.768178 0.382683 0.513280
v 0.815493 0.195090 0.544895
v 0.831469 0.000000 0.555570
v 0.815493 -0.195090 0.544895
v 0.768178 -0.382683 0.513280
v 0.691341 -0.555570 0.461940
v 0.587938 -0.707107 0.392847
v 0.461940 -0.831470 0.308658
v 0.318190 -0.923880 0.212608
v 0.162212 -0.980785 0.108386
v 0.137950 0.980785 0.137950
v 0.270598 0.923880 0.270598
v 0.392847 0.831470 0.392847
v 0.500000 0.707107 0.500000
v 0.587938 0.555570 0.587938
v 0.653281 0.382683 0.653281
v 0.693520 0.195090 0.693520
v 0.707106 0.000000 0.707107
v 0.693520 -0.195090 0.693520
v 0.653281 -0.382683 0.653281
v 0.587938 -0.555570 0.587938
v 0.500000 -0.707107 0.500000
v 0.392847 -0.831470 0.392847
v 0.270598 -0.923880 0.270598
v 0.137950 -0.980785 0.137950
v 0.108386 0.980785 0.162212
v 0.212607 0.923880 0.318190
v 0.308658 0.831470 0.461940
v 0.392847 0.707107 0.587938
v 0.461940 0.555570 0.691342
v 0.513280 0.382683 0.768178
v 0.544895 0.195090 0.815493
v 0.555570 0.000000 0.831469
v 0.544895 -0.195090 0.815493
v 0.513280 -0.382683 0.768178
v 0.461940 -0.555570 0.691342
v 0.392847 -0.707107 0.587938
v 0.308658 -0.831470 0.461940
v 0.212607 -0.923880 0.318190
v 0.108386 -0.980785 0.162212
v 0.074658 0.980785 0.180240
v 0.146447 0.923880 0.353553
v 0.212607 0.831470 0.513280
v 0.270598 0.707107 0.653281
v 0.318189 0.555570 0.768178
v 0.353553 0.382683 0.853553
v 0.375330 0.195090 0.906127
v 0.382683 0.000000 0.923879
v 0.375330 -0.195090 0.906127
v 0.353553 -0.382683 0.853553
v 0.318189 -0.555570 0.768178
v 0.270598 -0.707107 0.653281
v 0.212607 -0.831470 0.513280
v 0.146447 -0.923880 0.353553
v 0.074658 -0.980785 0.180240
v 0.038060 0.980785 0.191342
v 0.074658 0.923880 0.375330
v 0.108386 0.831470 0.544895
v 0.137950 0.707107 0.693520
v 0.162212 0.555570 0.815493
v 0.180240 0.382683 0.906127
v 0.191342 0.195090 0.961939
v 0.195090 0.000000 0.980785
v 0.191342 -0.195090 0.961939
v 0.180240 -0.382683 0.906127
v 0.162212 -0.555570 0.815493
v 0.137950 -0.707107 0.693520
v 0.108386 -0.831470 0.544895
v 0.074658 -0.923880 0.375330
v 0.038060 -0.980785 0.191342
v -0.000000 0.980785 0.195090
v -0.000000 0.923880 0.382683
v -0.000000 0.831470 0.555570
v -0.000000 0.707107 0.707107
v -0.000000 0.555570 0.831469
v 0.000000 0.382683 0.923879
v -0.000000 0.195090 0.980785
v -0.000000 0.000000 0.999999
v -0.000000 -0.195090 0.980785
v 0.000000 -0.382683 0.923879
v -0.000000 -0.555570 0.831469
v -0.000000 -0.707107 0.707107
v -0.000000 -0.831470 0.555570
v -0.000000 -0.923880 0.382683
v -0.000000 -0.980785 0.195090
v -0.038060 0.980785 0.191342
v -0.074658 0.923880 0.375330
v -0.108386 0.831470 0.544895
v -0.137950 0.707107 0.693520
v -0.162212 0.555570 0.815493
v -0.180240 0.382683 0.906127
v -0.191342 0.195090 0.961939
v -0.195091 0.000000 0.980785
v -0.191342 -0.195090 0.961939
v -0.180240 -0.382683 0.906127
v -0.162212 -0.555570 0.815493
v -0.137950 -0.707107 0.693520
v -0.108386 -0.831470 0.544895
v -0.074658 -0.923880 0.375330
v -0.038060 -0.980785 0.191342
v -0.074658 0.980785 0.180240
v -0.146447 0.923880 0.353553
v -0.212608 0.831470 0.513280
v -0.270598 0.707107 0.653281
v -0.318190 0.555570 0.768177
v -0.353553 0.382683 0.853553
v -0.375330 0.195090 0.906127
v -0.382683 0.000000 0.923879
v -0.375330 -0.195090 0.906127
v -0.353553 -0.382683 0.853553
v -0.318190 -0.555570 0.768177
v -0.270598 -0.707107 0.653281
v -0.212608 -0.831470 0.513280
v -0.146447 -0.923880 0.353553
v -0.074658 -0.980785 0.180240
v -0.108386 0.980785 0.162212
v -0.212608 0.923880 0.318190
v -0.308658 0.831470 0.461939
v -0.392847 0.707107 0.587938
v -0.461940 0.555570 0.691341
v -0.513280 0.382683 0.768178
v -0.544895 0.195090 0.815493
v -0.555570 0.000000 0.831469
v -0.544895 -0.195090 0.815493
v -0.513280 -0.382683 0.768178
v -0.461940 -0.555570 0.691341
v -0.392847 -0.707107 0.587938
v -0.308658 -0.831470 0.461939
v -0.212608 -0.923880 0.318190
v -0.108386 -0.980785 0.162212
v -0.137950 0.980785 0.137950
v -0.270598 0.923880 0.270598
v -0.392847 0.831470 0.392847
v -0.500000 0.707107 0.500000
v -0.587938 0.555570 0.587937
v -0.653281 0.382683 0.653281
v -0.693520 0.195090 0.693520
v -0.707106 0.000000 0.707106
v -0.693520 -0.195090 0.693520
v -0.653281 -0.382683 0.653281
v -0.587938 -0.555570 0.587937
v -0.500000 -0.707107 0.500000
v -0.392847 -0.831470 0.392847
v -0.270598 -0.923880 0.270598
v -0.137950 -0.980785 0.137950
v -0.162212 0.980785 0.108386
v -0.318190 0.923880 0.212607
v -0.461940 0.831470 0.308658
v -0.587938 0.707107 0.392847
v -0.691341 0.555570 0.461939
v -0.768177 0.382683 0.513280
v -0.815493 0.195090 0.544895
v -0.831469 0.000000 0.555569
v -0.815493 -0.195090 0.544895
v -0.768177 -0.382683 0.513280
v -0.691341 -0.555570 0.461939
v -0.587938 -0.707107 0.392847
v -0.461940 -0.831470 0.308658
v -0.318190 -0.923880 0.212607
v -0.162212 -0.980785 0.108386
v -0.180240 0.980785 0.074658
v -0.353553 0.923880 0.146447
v -0.513280 0.831470 0.212607
v -0.653281 0.707107 0.270598
v -0.768177 0.555570 0.318189
v -0.853553 0.382683 0.353553
v -0.906127 0.195090 0.375330
v -0.923879 0.000000 0.382683
v -0.906127 -0.195090 0.375330
v -0.853553 -0.382683 0.353553
v -0.768177 -0.555570 0.318189
v -0.653281 -0.707107 0.270598
v -0.513280 -0.831470 0.212607
v -0.353553 -0.923880 0.146447
v -0.180240 -0.980785 0.074658
v -0.191342 0.980785 0.038060
v -0.375330 0.923880 0.074658
v -0.544895 0.831470 0.108386
v -0.693520 0.707107 0.137950
v -0.815493 0.555570 0.162211
v -0.906127 0.382683 0.180240
v -0.961939 0.195090 0.191341
v -0.980784 0.000000 0.195090
v -0.961939 -0.195090 0.191341
v -0.906127 -0.382683 0.180240
v -0.815493 -0.555570 0.162211
v -0.693520 -0.707107 0.137950
v -0.544895 -0.831470 0.108386
v -0.375330 -0.923880 0.074658
v -0.191342 -0.980785 0.038060
v -0.195090 0.980785 -0.000000
v -0.382683 0.923880 -0.000000
v -0.555570 0.831470 -0.000000
v -0.707107 0.707107 -0.000000
v -0.831469 0.555570 -0.000000
v -0.923879 0.382683 -0.000000
v -0.980785 0.195090 -0.000000
v -0.999999 0.000000 -0.000000
v -0.980785 -0.195090 -0.000000
v -0.923879 -0.382683 -0.000000
v -0.831469 -0.555570 -0.000000
v -0.707107 -0.707107 -0.000000
v -0.555570 -0.831470 -0.000000
v -0.382683 -0.923880 -0.000000
v -0.195090 -0.980785 -0.000000
v -0.191342 0.980785 -0.038060
v -0.375330 0.923880 -0.074658
v -0.544895 0.831470 -0.108386
v -0.693520 0.707107 -0.137950
v -0.815493 0.555570 -0.162212
v -0.906127 0.382683 -0.180240
v -0.961939 0.195090 -0.191342
v -0.980784 0.000000 -0.195091
v -0.961939 -0.195090 -0.191342
v -0.906127 -0.382683 -0.180240
v -0.815493 -0.555570 -0.162212
v -0.693520 -0.707107 -0.137950
v -0.544895 -0.831470 -0.108386
v -0.375330 -0.923880 -0.074658
v -0.191342 -0.980785 -0.038060
v -0.180240 0.980785 -0.074658
v -0.353553 0.923880 -0.146447
v -0.513279 0.831470 -0.212607
v -0.653281 0.707107 -0.270598
v -0.768177 0.555570 -0.318190
v -0.853553 0.382683 -0.353553
v -0.906127 0.195090 -0.375330
v -0.923878 0.000000 -0.382683
v -0.906127 -0.195090 -0.375330
v -0.853553 -0.382683 -0.353553
v -0.768177 -0.555570 -0.318190
v -0.653281 -0.707107 -0.270598
v -0.513279 -0.831470 -0.212607
v -0.353553 -0.923880 -0.146447
v -0.180240 -0.980785 -0.074658
v -0.162212 0.980785 -0.108386
v -0.318189 0.923880 -0.212607
v -0.461939 0.831470 -0.308658
v -0.587938 0.707107 -0.392847
v -0.691341 0.555570 -0.461940
v -0.768177 0.382683 -0.513280
v -0.815493 0.195090 -0.544895
v -0.831468 0.000000 -0.555570
v -0.815493 -0.195090 -0.544895
v -0.768177 -0.382683 -0.513280
v -0.691341 -0.555570 -0.461940
v -0.587938 -0.707107 -0.392847
v -0.461939 -0.831470 -0.308658
v -0.318189 -0.923880 -0.212607
v -0.162212 -0.980785 -0.108386
v -0.137950 0.980785 -0.137950
v -0.270598 0.923880 -0.270598
v -0.392847 0.831470 -0.392847
v -0.500000 0.707107 -0.500000
v -0.587937 0.555570 -0.587938
v -0.653281 0.382683 -0.653281
v -0.693519 0.195090 -0.693520
v -0.707106 0.000000 -0.707106
v -0.693519 -0.195090 -0.693520
v -0.653281 -0.382683 -0.653281
v -0.587937 -0.555570 -0.587938
v -0.500000 -0.707107 -0.500000
v -0.392847 -0.831470 -0.392847
v -0.270598 -0.923880 -0.270598
v -0.137950 -0.980785 -0.137950
v -0.108386 0.980785 -0.162212
v -0.212607 0.923880 -0.318190
v -0.308658 0.831470 -0.461939
v -0.392847 0.707107 -0.587938
v -0.461939 0.555570 -0.691341
v -0.513280 0.382683 -0.768177
v -0.544895 0.195090 -0.815493
v -0.555569 0.000000 -0.831469
v -0.544895 -0.195090 -0.815493
v -0.513280 -0.382683 -0.768177
v -0.461939 -0.555570 -0.691341
v -0.392847 -0.707107 -0.587938
v -0.308658 -0.831470 -0.461939
v -0.212607 -0.923880 -0.318190
v -0.108386 -0.980785 -0.162212
v -0.074658 0.980785 -0.180240
v -0.146446 0.923880 -0.353553
v -0.212607 0.831470 -0.513279
v -0.270598 0.707107 -0.653281
v -0.318189 0.555570 -0.768177
v -0.353553 0.382683 -0.853553
v -0.375330 0.195090 -0.906127
v -0.382683 0.000000 -0.923879
v -0.375330 -0.195090 -0.906127
v -0.353553 -0.382683 -0.853553
v -0.318189 -0.555570 -0.768177
v -0.270598 -0.707107 -0.653281
v -0.212607 -0.831470 -0.513279
v -0.146446 -0.923880 -0.353553
v -0.074658 -0.980785 -0.180240
v -0.038060 0.980785 -0.191342
v -0.074658 0.923880 -0.375330
v -0.108386 0.831470 -0.544895
v -0.137950 0.707107 -0.693520
v -0.162211 0.555570 -0.815493
v -0.180240 0.382683 -0.906127
v -0.191341 0.195090 -0.961939
v -0.195090 0.000000 -0.980784
v -0.191341 -0.195090 -0.961939
v -0.180240 -0.382683 -0.906127
v -0.162211 -0.555570 -0.815493
v -0.137950 -0.707107 -0.693520
v -0.108386 -0.831470 -0.544895
v -0.074658 -0.923880 -0.375330
v -0.038060 -0.980785 -0.191342
v 0.000000 0.980785 -0.195090
v 0.000000 0.923880 -0.382683
v 0.000000 0.707107 -0.707107
v 0.000000 0.382683 -0.923879
v 0.000000 -0.382683 -0.923879
v 0.000000 -0.707107 -0.707107
v 0.000000 -0.831470 -0.555570
v 0.000000 -0.923880 -0.382683
v 0.000000 -0.980785 -0.195090
vn 0.0097 0.9951 -0.0980
vn 0.0097 -0.9951 -0.0980
vn 0.0975 -0.0975 -0.9904
vn 0.0286 0.9565 -0.2902
vn 0.0938 -0.2890 -0.9527
vn 0.0464 0.8810 -0.4709
vn 0.0865 -0.4696 -0.8786
vn 0.0624 0.7715 -0.6332
vn 0.0759 -0.6326 -0.7708
vn 0.0759 0.6326 -0.7708
vn 0.0624 -0.7715 -0.6332
vn 0.0865 0.4696 -0.8786
vn 0.0464 -0.8810 -0.4709
vn 0.0938 0.2890 -0.9527
vn 0.0286 -0.9565 -0.2902
vn 0.0975 0.0975 -0.9904
vn 0.2779 0.2890 -0.9161
vn 0.0846 -0.9565 -0.2790
vn 0.2889 0.0976 -0.9524
vn 0.0286 0.9951 -0.0942
vn 0.0286 -0.9951 -0.0942
vn 0.2889 -0.0976 -0.9524
vn 0.0846 0.9565 -0.2790
vn 0.2779 -0.2890 -0.9161
vn 0.1374 0.8810 -0.4528
vn 0.2563 -0.4696 -0.8448
vn 0.1847 0.7715 -0.6088
vn 0.2248 -0.6326 -0.7412
vn 0.2248 0.6326 -0.7412
vn 0.1847 -0.7715 -0.6088
vn 0.2563 0.4696 -0.8448
vn 0.1374 -0.8810 -0.4528
vn 0.4162 -0.4696 -0.7786
vn 0.2999 0.7715 -0.5611
vn 0.3651 -0.6326 -0.6831
vn 0.3651 0.6326 -0.6831
vn 0.2999 -0.7715 -0.5611
vn 0.4162 0.4696 -0.7786
vn 0.2230 -0.8810 -0.4173
vn 0.4513 0.2890 -0.8443
vn 0.1374 -0.9565 -0.2571
vn 0.4691 0.0975 -0.8777
vn 0.0464 0.9951 -0.0869
vn 0.0464 -0.9951 -0.0869
vn 0.4691 -0.0975 -0.8777
vn 0.1374 0.9565 -0.2571
vn 0.4513 -0.2890 -0.8443
vn 0.2230 0.8810 -0.4173
vn 0.1850 -0.9565 -0.2254
vn 0.6314 0.0975 -0.7693
vn 0.0625 0.9951 -0.0761
vn 0.0625 -0.9951 -0.0761
vn 0.6314 -0.0975 -0.7693
vn 0.1850 0.9565 -0.2254
vn 0.6073 -0.2890 -0.7400
vn 0.3002 0.8810 -0.3658
vn 0.5601 -0.4696 -0.6825
vn 0.4036 0.7715 -0.4918
vn 0.4913 -0.6326 -0.5987
vn 0.4913 0.6326 -0.5987
vn 0.4036 -0.7715 -0.4918
vn 0.5601 0.4696 -0.6825
vn 0.3002 -0.8810 -0.3658
vn 0.6073 0.2890 -0.7400
vn 0.5987 -0.6326 -0.4913
vn 0.5987 0.6326 -0.4913
vn 0.4918 -0.7715 -0.4036
vn 0.6825 0.4696 -0.5601
vn 0.3658 -0.8810 -0.3002
vn 0.7400 0.2890 -0.6073
vn 0.2254 -0.9565 -0.1850
vn 0.7693 0.0975 -0.6314
vn 0.0761 0.9951 -0.0625
vn 0.0761 -0.9951 -0.0625
vn 0.7693 -0.0975 -0.6314
vn 0.2254 0.9565 -0.1850
vn 0.7400 -0.2890 -0.6073
vn 0.3658 0.8810 -0.3002
vn 0.6825 -0.4696 -0.5601
vn 0.4918 0.7715 -0.4036
vn 0.0869 0.9951 -0.0464
vn 0.0869 -0.9951 -0.0464
vn 0.8777 -0.0975 -0.4691
vn 0.2571 0.9565 -0.1374
vn 0.8443 -0.2890 -0.4513
vn 0.4173 0.8810 -0.2230
vn 0.7786 -0.4696 -0.4162
vn 0.5611 0.7715 -0.2999
vn 0.6831 -0.6326 -0.3651
vn 0.6831 0.6326 -0.3651
vn 0.5611 -0.7715 -0.2999
vn 0.7786 0.4696 -0.4162
vn 0.4173 -0.8810 -0.2230
vn 0.8443 0.2890 -0.4513
vn 0.2571 -0.9565 -0.1374
vn 0.8777 0.0975 -0.4691
vn 0.7412 0.6326 -0.2248
vn 0.6088 -0.7715 -0.1847
vn 0.8448 0.4696 -0.2563
vn 0.4528 -0.8810 -0.1374
vn 0.9161 0.2890 -0.2779
vn 0.2790 -0.9565 -0.0846
vn 0.9524 0.0975 -0.2889
vn 0.0942 0.9951 -0.0286
vn 0.0942 -0.9951 -0.0286
vn 0.9524 -0.0975 -0.2889
vn 0.2790 0.9565 -0.0846
vn 0.9161 -0.2890 -0.2779
vn 0.4528 0.8810 -0.1374
vn 0.8448 -0.4696 -0.2563
vn 0.6088 0.7715 -0.1847
vn 0.7412 -0.6326 -0.2248
vn 0.9904 -0.0975 -0.0975
vn 0.2902 0.9565 -0.0286
vn 0.9527 -0.2890 -0.0938
vn 0.4709 0.8810 -0.0464
vn 0.8786 -0.4696 -0.0865
vn 0.6332 0.7715 -0.0624
vn 0.7708 -0.6326 -0.0759
vn 0.7708 0.6326 -0.0759
vn 0.6332 -0.7715 -0.0624
vn 0.8786 0.4696 -0.0865
vn 0.4709 -0.8810 -0.0464
vn 0.9527 0.2890 -0.0938
vn 0.2902 -0.9565 -0.0286
vn 0.9904 0.0975 -0.0975
vn 0.0980 0.9951 -0.0097
vn 0.0980 -0.9951 -0.0097
vn 0.6332 -0.7715 0.0624
vn 0.8786 0.4696 0.0865
vn 0.4709 -0.8810 0.0464
vn 0.9527 0.2890 0.0938
vn 0.2902 -0.9565 0.0286
vn 0.9904 0.0975 0.0976
vn 0.0980 0.9951 0.0097
vn 0.0980 -0.9951 0.0097
vn 0.9904 -0.0975 0.0976
vn 0.2902 0.9565 0.0286
vn 0.9527 -0.2890 0.0938
vn 0.4709 0.8810 0.0464
vn 0.8786 -0.4696 0.0865
vn 0.6332 0.7715 0.0624
vn 0.7708 -0.6326 0.0759
vn 0.7708 0.6326 0.0759
vn 0.2790 0.9565 0.0846
vn 0.9161 -0.2890 0.2779
vn 0.4528 0.8810 0.1374
vn 0.8448 -0.4696 0.2563
vn 0.6088 0.7715 0.1847
vn 0.7412 -0.6326 0.2248
vn 0.7412 0.6326 0.2248
vn 0.6088 -0.7715 0.1847
vn 0.8448 0.4696 0.2563
vn 0.4528 -0.8810 0.1374
vn 0.9161 0.2890 0.2779
vn 0.2790 -0.9565 0.0846
vn 0.9524 0.0975 0.2889
vn 0.0942 0.9951 0.0286
vn 0.0942 -0.9951 0.0286
vn 0.9524 -0.0975 0.2889
vn 0.7786 0.4696 0.4162
vn 0.4173 -0.8810 0.2230
vn 0.8443 0.2890 0.4513
vn 0.2571 -0.9565 0.1374
vn 0.8777 0.0975 0.4691
vn 0.0869 0.9951 0.0464
vn 0.0869 -0.9951 0.0464
vn 0.8777 -0.0975 0.4691
vn 0.2571 0.9565 0.1374
vn 0.8443 -0.2890 0.4513
vn 0.4173 0.8810 0.2230
vn 0.7786 -0.4696 0.4162
vn 0.5611 0.7715 0.2999
vn 0.6831 -0.6326 0.3651
vn 0.6831 0.6326 0.3651
vn 0.5611 -0.7715 0.2999
vn 0.7400 -0.2890 0.6073
vn 0.3658 0.8810 0.3002
vn 0.6825 -0.4696 0.5601
vn 0.4918 0.7715 0.4036
vn 0.5987 -0.6326 0.4913
vn 0.5987 0.6326 0.4913
vn 0.4918 -0.7715 0.4036
vn 0.6825 0.4696 0.5601
vn 0.3658 -0.8810 0.3002
vn 0.7400 0.2890 0.6073
vn 0.2254 -0.9565 0.1850
vn 0.7693 0.0975 0.6314
vn 0.0761 0.9951 0.0625
vn 0.0761 -0.9951 0.0625
vn 0.7693 -0.0975 0.6314
vn 0.2254 0.9565 0.1850
vn 0.3002 -0.8810 0.3658
vn 0.6073 0.2890 0.7400
vn 0.1850 -0.9565 0.2254
vn 0.6314 0.0975 0.7693
vn 0.0625 0.9951 0.0761
vn 0.0625 -0.9951 0.0761
vn 0.6314 -0.0975 0.7693
vn 0.1850 0.9565 0.2254
vn 0.6073 -0.2890 0.7400
vn 0.3002 0.8810 0.3658
vn 0.5601 -0.4696 0.6825
vn 0.4036 0.7715 0.4918
vn 0.4913 -0.6326 0.5987
vn 0.4913 0.6326 0.5987
vn 0.4036 -0.7715 0.4918
vn 0.5601 0.4696 0.6825
vn 0.4162 -0.4696 0.7786
vn 0.2999 0.7715 0.5611
vn 0.3651 -0.6326 0.6831
vn 0.3651 0.6326 0.6831
vn 0.2999 -0.7715 0.5611
vn 0.4162 0.4696 0.7786
vn 0.2230 -0.8810 0.4173
vn 0.4513 0.2890 0.8443
vn 0.1374 -0.9565 0.2571
vn 0.4691 0.0975 0.8777
vn 0.0464 0.9951 0.0869
vn 0.0464 -0.9951 0.0869
vn 0.4691 -0.0975 0.8777
vn 0.1374 0.9565 0.2571
vn 0.4513 -0.2890 0.8443
vn 0.2230 0.8810 0.4173
vn 0.0846 -0.9565 0.2790
vn 0.2889 0.0975 0.9524
vn 0.0286 0.9951 0.0942
vn 0.0286 -0.9951 0.0942
vn 0.2889 -0.0975 0.9524
vn 0.0846 0.9565 0.2790
vn 0.2779 -0.2890 0.9161
vn 0.1374 0.8810 0.4528
vn 0.2563 -0.4696 0.8448
vn 0.1847 0.7715 0.6088
vn 0.2248 -0.6326 0.7412
vn 0.2248 0.6326 0.7412
vn 0.1847 -0.7715 0.6088
vn 0.2563 0.4696 0.8448
vn 0.1374 -0.8810 0.4528
vn 0.2779 0.2890 0.9161
vn 0.0624 0.7715 0.6332
vn 0.0759 -0.6326 0.7708
vn 0.0759 0.6326 0.7708
vn 0.0624 -0.7715 0.6332
vn 0.0865 0.4696 0.8786
vn 0.0464 -0.8810 0.4709
vn 0.0938 0.2890 0.9527
vn 0.0286 -0.9565 0.2902
vn 0.0975 0.0975 0.9904
vn 0.0097 0.9951 0.0980
vn 0.0097 -0.9951 0.0980
vn 0.0975 -0.0975 0.9904
vn 0.0286 0.9565 0.2902
vn 0.0938 -0.2890 0.9527
vn 0.0464 0.8810 0.4709
vn 0.0865 -0.4696 0.8786
vn -0.0976 0.0975 0.9904
vn -0.0097 0.9951 0.0980
vn -0.0097 -0.9951 0.0980
vn -0.0976 -0.0975 0.9904
vn -0.0286 0.9565 0.2902
vn -0.0938 -0.2890 0.9527
vn -0.0464 0.8810 0.4709
vn -0.0865 -0.4696 0.8786
vn -0.0624 0.7715 0.6332
vn -0.0759 -0.6326 0.7708
vn -0.0759 0.6326 0.7708
vn -0.0624 -0.7715 0.6332
vn -0.0865 0.4696 0.8786
vn -0.0464 -0.8810 0.4709
vn -0.0938 0.2890 0.9527
vn -0.0286 -0.9565 0.2902
vn -0.2248 -0.6326 0.7412
vn -0.2248 0.6326 0.7412
vn -0.1847 -0.7715 0.6088
vn -0.2563 0.4696 0.8448
vn -0.1374 -0.8810 0.4528
vn -0.2779 0.2890 0.9161
vn -0.0846 -0.9565 0.2790
vn -0.2889 0.0975 0.9524
vn -0.0286 0.9951 0.0942
vn -0.0286 -0.9951 0.0942
vn -0.2889 -0.0975 0.9524
vn -0.0846 0.9565 0.2790
vn -0.2779 -0.2890 0.9161
vn -0.1374 0.8810 0.4528
vn -0.2563 -0.4696 0.8448
vn -0.1847 0.7715 0.6088
vn -0.0464 0.9951 0.0869
vn -0.0464 -0.9951 0.0869
vn -0.4691 -0.0975 0.8777
vn -0.1374 0.9565 0.2571
vn -0.4513 -0.2890 0.8443
vn -0.2230 0.8810 0.4173
vn -0.4162 -0.4696 0.7786
vn -0.2999 0.7715 0.5611
vn -0.3651 -0.6326 0.6831
vn -0.3651 0.6326 0.6831
vn -0.2999 -0.7715 0.5611
vn -0.4162 0.4696 0.7786
vn -0.2230 -0.8810 0.4173
vn -0.4513 0.2890 0.8443
vn -0.1374 -0.9565 0.2571
vn -0.4691 0.0975 0.8777
vn -0.4913 0.6326 0.5987
vn -0.4036 -0.7715 0.4918
vn -0.5601 0.4696 0.6825
vn -0.3002 -0.8810 0.3658
vn -0.6073 0.2890 0.7400
vn -0.1850 -0.9565 0.2254
vn -0.6314 0.0975 0.7693
vn -0.0625 0.9951 0.0761
vn -0.0625 -0.9951 0.0761
vn -0.6314 -0.0975 0.7693
vn -0.1850 0.9565 0.2254
vn -0.6073 -0.2890 0.7400
vn -0.3002 0.8810 0.3658
vn -0.5601 -0.4696 0.6825
vn -0.4036 0.7715 0.4918
vn -0.4913 -0.6326 0.5987
vn -0.7693 -0.0975 0.6314
vn -0.2254 0.9565 0.1850
vn -0.7400 -0.2890 0.6073
vn -0.3658 0.8810 0.3002
vn -0.6825 -0.4696 0.5601
vn -0.4918 0.7715 0.4036
vn -0.5987 -0.6326 0.4913
vn -0.5987 0.6326 0.4913
vn -0.4918 -0.7715 0.4036
vn -0.6825 0.4696 0.5601
vn -0.3658 -0.8810 0.3002
vn -0.7400 0.2890 0.6073
vn -0.2254 -0.9565 0.1850
vn -0.7693 0.0975 0.6314
vn -0.0761 0.9951 0.0625
vn -0.0761 -0.9951 0.0625
vn -0.5611 -0.7715 0.2999
vn -0.7786 0.4696 0.4162
vn -0.4173 -0.8810 0.2230
vn -0.8443 0.2890 0.4513
vn -0.2571 -0.9565 0.1374
vn -0.8777 0.0975 0.4691
vn -0.0869 0.9951 0.0464
vn -0.0869 -0.9951 0.0464
vn -0.8777 -0.0975 0.4691
vn -0.2571 0.9565 0.1374
vn -0.8443 -0.2890 0.4513
vn -0.4173 0.8810 0.2230
vn -0.7786 -0.4696 0.4162
vn -0.5611 0.7715 0.2999
vn -0.6831 -0.6326 0.3651
vn -0.6831 0.6326 0.3651
vn -0.9161 -0.2890 0.2779
vn -0.4528 0.8810 0.1374
vn -0.8448 -0.4696 0.2563
vn -0.6088 0.7715 0.1847
vn -0.7412 -0.6326 0.2248
vn -0.7412 0.6326 0.2248
vn -0.6088 -0.7715 0.1847
vn -0.8448 0.4696 0.2563
vn -0.4528 -0.8810 0.1374
vn -0.9161 0.2890 0.2779
vn -0.2790 -0.9565 0.0846
vn -0.9524 0.0975 0.2889
vn -0.0942 0.9951 0.0286
vn -0.0942 -0.9951 0.0286
vn -0.9524 -0.0975 0.2889
vn -0.2790 0.9565 0.0846
vn -0.4709 -0.8810 0.0464
vn -0.9527 0.2890 0.0938
vn -0.2902 -0.9565 0.0286
vn -0.9904 0.0975 0.0975
vn -0.0980 0.9951 0.0097
vn -0.0980 -0.9951 0.0097
vn -0.9904 -0.0975 0.0975
vn -0.2902 0.9565 0.0286
vn -0.9527 -0.2890 0.0938
vn -0.4709 0.8810 0.0464
vn -0.8786 -0.4696 0.0865
vn -0.6332 0.7715 0.0624
vn -0.7708 -0.6326 0.0759
vn -0.7708 0.6326 0.0759
vn -0.6332 -0.7715 0.0624
vn -0.8786 0.4696 0.0865
vn -0.4709 0.8810 -0.0464
vn -0.8786 -0.4696 -0.0865
vn -0.6332 0.7715 -0.0624
vn -0.7708 -0.6326 -0.0759
vn -0.7708 0.6326 -0.0759
vn -0.6332 -0.7715 -0.0624
vn -0.8786 0.4696 -0.0865
vn -0.4709 -0.8810 -0.0464
vn -0.9527 0.2890 -0.0938
vn -0.2902 -0.9565 -0.0286
vn -0.9904 0.0975 -0.0976
vn -0.0980 0.9951 -0.0097
vn -0.0980 -0.9951 -0.0097
vn -0.9904 -0.0975 -0.0976
vn -0.2902 0.9565 -0.0286
vn -0.9527 -0.2890 -0.0938
vn -0.9161 0.2890 -0.2779
vn -0.2790 -0.9565 -0.0846
vn -0.9524 0.0975 -0.2889
vn -0.0942 0.9951 -0.0286
vn -0.0942 -0.9951 -0.0286
vn -0.9524 -0.0975 -0.2889
vn -0.2790 0.9565 -0.0846
vn -0.9161 -0.2890 -0.2779
vn -0.4528 0.8810 -0.1374
vn -0.8448 -0.4696 -0.2563
vn -0.6088 0.7715 -0.1847
vn -0.7412 -0.6326 -0.2248
vn -0.7412 0.6326 -0.2248
vn -0.6088 -0.7715 -0.1847
vn -0.8448 0.4696 -0.2563
vn -0.4528 -0.8810 -0.1374
vn -0.7786 -0.4696 -0.4162
vn -0.5611 0.7715 -0.2999
vn -0.6831 -0.6326 -0.3651
vn -0.6831 0.6326 -0.3651
vn -0.5611 -0.7715 -0.2999
vn -0.7786 0.4696 -0.4162
vn -0.4173 -0.8810 -0.2231
vn -0.8443 0.2890 -0.4513
vn -0.2571 -0.9565 -0.1374
vn -0.8777 0.0975 -0.4691
vn -0.0869 0.9951 -0.0464
vn -0.0869 -0.9951 -0.0464
vn -0.8777 -0.0975 -0.4691
vn -0.2571 0.9565 -0.1374
vn -0.8443 -0.2890 -0.4513
vn -0.4173 0.8810 -0.2231
vn -0.2254 -0.9565 -0.1850
vn -0.7693 0.0975 -0.6314
vn -0.0761 0.9951 -0.0625
vn -0.0761 -0.9951 -0.0625
vn -0.7693 -0.0975 -0.6314
vn -0.2254 0.9565 -0.1850
vn -0.7400 -0.2890 -0.6073
vn -0.3658 0.8810 -0.3002
vn -0.6825 -0.4696 -0.5601
vn -0.4918 0.7715 -0.4036
vn -0.5987 -0.6326 -0.4913
vn -0.5987 0.6326 -0.4913
vn -0.4918 -0.7715 -0.4036
vn -0.6825 0.4696 -0.5601
vn -0.3658 -0.8810 -0.3002
vn -0.7400 0.2890 -0.6073
vn -0.4036 0.7715 -0.4918
vn -0.4913 -0.6326 -0.5987
vn -0.4913 0.6326 -0.5987
vn -0.4036 -0.7715 -0.4918
vn -0.5601 0.4696 -0.6825
vn -0.3002 -0.8810 -0.3658
vn -0.6073 0.2890 -0.7400
vn -0.1850 -0.9565 -0.2254
vn -0.6314 0.0975 -0.7693
vn -0.0625 0.9951 -0.0761
vn -0.0625 -0.9951 -0.0761
vn -0.6314 -0.0975 -0.7693
vn -0.1850 0.9565 -0.2254
vn -0.6073 -0.2890 -0.7400
vn -0.3002 0.8810 -0.3658
vn -0.5601 -0.4696 -0.6825
vn -0.4691 0.0975 -0.8777
vn -0.0464 0.9951 -0.0869
vn -0.0464 -0.9951 -0.0869
vn -0.4691 -0.0975 -0.8777
vn -0.1374 0.9565 -0.2571
vn -0.4513 -0.2890 -0.8443
vn -0.2230 0.8810 -0.4173
vn -0.4162 -0.4696 -0.7786
vn -0.2999 0.7715 -0.5611
vn -0.3651 -0.6326 -0.6831
vn -0.3651 0.6326 -0.6831
vn -0.2999 -0.7715 -0.5611
vn -0.4162 0.4696 -0.7786
vn -0.2230 -0.8810 -0.4173
vn -0.4513 0.2890 -0.8443
vn -0.1374 -0.9565 -0.2571
vn -0.2248 -0.6326 -0.7412
vn -0.2248 0.6326 -0.7412
vn -0.1847 -0.7715 -0.6088
vn -0.2563 0.4696 -0.8448
vn -0.1374 -0.8810 -0.4528
vn -0.2779 0.2890 -0.9161
vn -0.0846 -0.9565 -0.2790
vn -0.2889 0.0975 -0.9524
vn -0.0286 0.9951 -0.0942
vn -0.0286 -0.9951 -0.0942
vn -0.2889 -0.0975 -0.9524
vn -0.0846 0.9565 -0.2790
vn -0.2779 -0.2890 -0.9161
vn -0.1374 0.8810 -0.4528
vn -0.2563 -0.4696 -0.8448
vn -0.1847 0.7715 -0.6088
vn -0.0097 -0.9951 -0.0980
vn -0.0976 -0.0975 -0.9904
vn -0.0286 0.9565 -0.2902
vn -0.0938 -0.2890 -0.9527
vn -0.0464 0.8810 -0.4709
vn -0.0865 -0.4696 -0.8786
vn -0.0624 0.7715 -0.6332
vn -0.0759 -0.6326 -0.7708
vn -0.0759 0.6326 -0.7708
vn -0.0624 -0.7715 -0.6332
vn -0.0865 0.4696 -0.8786
vn -0.0464 -0.8810 -0.4709
vn -0.0938 0.2890 -0.9527
vn -0.0286 -0.9565 -0.2902
vn -0.0976 0.0975 -0.9904
vn -0.0097 0.9951 -0.0980
vt 0.750000 0.937500
vt 0.734375 1.000000
vt 0.718750 0.937500
vt 0.734375 0.000000
vt 0.750000 0.062500
vt 0.718750 0.062500
vt 0.750000 0.437500
vt 0.750000 0.500000
vt 0.718750 0.500000
vt 0.718750 0.437500
vt 0.750000 0.875000
vt 0.718750 0.875000
vt 0.750000 0.375000
vt 0.718750 0.375000
vt 0.750000 0.812500
vt 0.718750 0.812500
vt 0.750000 0.312500
vt 0.718750 0.312500
vt 0.750000 0.750000
vt 0.718750 0.750000
vt 0.750000 0.250000
vt 0.718750 0.250000
vt 0.750000 0.687500
vt 0.718750 0.687500
vt 0.750000 0.187500
vt 0.718750 0.187500
vt 0.750000 0.625000
vt 0.718750 0.625000
vt 0.750000 0.125000
vt 0.718750 0.125000
vt 0.750000 0.562500
vt 0.718750 0.562500
vt 0.687500 0.625000
vt 0.687500 0.562500
vt 0.687500 0.125000
vt 0.687500 0.062500
vt 0.687500 0.500000
vt 0.703125 1.000000
vt 0.687500 0.937500
vt 0.703125 0.000000
vt 0.687500 0.437500
vt 0.687500 0.875000
vt 0.687500 0.375000
vt 0.687500 0.812500
vt 0.687500 0.312500
vt 0.687500 0.750000
vt 0.687500 0.250000
vt 0.687500 0.687500
vt 0.687500 0.187500
vt 0.656250 0.375000
vt 0.656250 0.312500
vt 0.656250 0.812500
vt 0.656250 0.750000
vt 0.656250 0.250000
vt 0.656250 0.687500
vt 0.656250 0.187500
vt 0.656250 0.625000
vt 0.656250 0.125000
vt 0.656250 0.562500
vt 0.656250 0.062500
vt 0.656250 0.500000
vt 0.671875 1.000000
vt 0.656250 0.937500
vt 0.671875 0.000000
vt 0.656250 0.437500
vt 0.656250 0.875000
vt 0.625000 0.125000
vt 0.625000 0.062500
vt 0.625000 0.562500
vt 0.625000 0.500000
vt 0.640625 1.000000
vt 0.625000 0.937500
vt 0.640625 0.000000
vt 0.625000 0.437500
vt 0.625000 0.875000
vt 0.625000 0.375000
vt 0.625000 0.812500
vt 0.625000 0.312500
vt 0.625000 0.750000
vt 0.625000 0.250000
vt 0.625000 0.687500
vt 0.625000 0.187500
vt 0.625000 0.625000
vt 0.593750 0.312500
vt 0.593750 0.250000
vt 0.593750 0.750000
vt 0.593750 0.687500
vt 0.593750 0.187500
vt 0.593750 0.625000
vt 0.593750 0.125000
vt 0.593750 0.562500
vt 0.593750 0.062500
vt 0.593750 0.500000
vt 0.609375 1.000000
vt 0.593750 0.937500
vt 0.609375 0.000000
vt 0.593750 0.437500
vt 0.593750 0.875000
vt 0.593750 0.375000
vt 0.593750 0.812500
vt 0.578125 1.000000
vt 0.562500 0.937500
vt 0.578125 0.000000
vt 0.562500 0.062500
vt 0.562500 0.500000
vt 0.562500 0.437500
vt 0.562500 0.875000
vt 0.562500 0.375000
vt 0.562500 0.812500
vt 0.562500 0.312500
vt 0.562500 0.750000
vt 0.562500 0.250000
vt 0.562500 0.687500
vt 0.562500 0.187500
vt 0.562500 0.625000
vt 0.562500 0.125000
vt 0.562500 0.562500
vt 0.531250 0.750000
vt 0.531250 0.687500
vt 0.531250 0.250000
vt 0.531250 0.187500
vt 0.531250 0.625000
vt 0.531250 0.125000
vt 0.531250 0.562500
vt 0.531250 0.062500
vt 0.531250 0.500000
vt 0.546875 1.000000
vt 0.531250 0.937500
vt 0.546875 0.000000
vt 0.531250 0.437500
vt 0.531250 0.875000
vt 0.531250 0.375000
vt 0.531250 0.812500
vt 0.531250 0.312500
vt 0.500000 0.500000
vt 0.500000 0.437500
vt 0.500000 0.937500
vt 0.500000 0.875000
vt 0.500000 0.375000
vt 0.500000 0.812500
vt 0.500000 0.312500
vt 0.500000 0.750000
vt 0.500000 0.250000
vt 0.500000 0.687500
vt 0.500000 0.187500
vt 0.500000 0.625000
vt 0.500000 0.125000
vt 0.500000 0.562500
vt 0.500000 0.062500
vt 0.515625 1.000000
vt 0.515625 0.000000
vt 0.468750 0.250000
vt 0.468750 0.187500
vt 0.468750 0.687500
vt 0.468750 0.625000
vt 0.468750 0.125000
vt 0.468750 0.562500
vt 0.468750 0.062500
vt 0.468750 0.500000
vt 0.484375 1.000000
vt 0.468750 0.937500
vt 0.484375 0.000000
vt 0.468750 0.437500
vt 0.468750 0.875000
vt 0.468750 0.375000
vt 0.468750 0.812500
vt 0.468750 0.312500
vt 0.468750 0.750000
vt 0.437500 0.937500
vt 0.437500 0.875000
vt 0.437500 0.437500
vt 0.437500 0.375000
vt 0.437500 0.812500
vt 0.437500 0.312500
vt 0.437500 0.750000
vt 0.437500 0.250000
vt 0.437500 0.687500
vt 0.437500 0.187500
vt 0.437500 0.625000
vt 0.437500 0.125000
vt 0.437500 0.562500
vt 0.437500 0.062500
vt 0.437500 0.500000
vt 0.453125 1.000000
vt 0.453125 0.000000
vt 0.406250 0.687500
vt 0.406250 0.625000
vt 0.406250 0.187500
vt 0.406250 0.125000
vt 0.406250 0.562500
vt 0.406250 0.062500
vt 0.406250 0.500000
vt 0.421875 1.000000
vt 0.406250 0.937500
vt 0.421875 0.000000
vt 0.406250 0.437500
vt 0.406250 0.875000
vt 0.406250 0.375000
vt 0.406250 0.812500
vt 0.406250 0.312500
vt 0.406250 0.750000
vt 0.406250 0.250000
vt 0.375000 0.437500
vt 0.375000 0.375000
vt 0.375000 0.875000
vt 0.375000 0.812500
vt 0.375000 0.312500
vt 0.375000 0.750000
vt 0.375000 0.250000
vt 0.375000 0.687500
vt 0.375000 0.187500
vt 0.375000 0.625000
vt 0.375000 0.125000
vt 0.375000 0.562500
vt 0.375000 0.062500
vt 0.375000 0.500000
vt 0.390625 1.000000
vt 0.375000 0.937500
vt 0.390625 0.000000
vt 0.343750 0.187500
vt 0.343750 0.125000
vt 0.343750 0.625000
vt 0.343750 0.562500
vt 0.343750 0.062500
vt 0.343750 0.500000
vt 0.359375 1.000000
vt 0.343750 0.937500
vt 0.359375 0.000000
vt 0.343750 0.437500
vt 0.343750 0.875000
vt 0.343750 0.375000
vt 0.343750 0.812500
vt 0.343750 0.312500
vt 0.343750 0.750000
vt 0.343750 0.250000
vt 0.343750 0.687500
vt 0.312500 0.375000
vt 0.312500 0.312500
vt 0.312500 0.812500
vt 0.312500 0.750000
vt 0.312500 0.250000
vt 0.312500 0.687500
vt 0.312500 0.187500
vt 0.312500 0.625000
vt 0.312500 0.125000
vt 0.312500 0.562500
vt 0.312500 0.062500
vt 0.312500 0.500000
vt 0.328125 1.000000
vt 0.312500 0.937500
vt 0.328125 0.000000
vt 0.312500 0.437500
vt 0.312500 0.875000
vt 0.281250 0.125000
vt 0.281250 0.062500
vt 0.281250 0.562500
vt 0.281250 0.500000
vt 0.296875 1.000000
vt 0.281250 0.937500
vt 0.296875 0.000000
vt 0.281250 0.437500
vt 0.281250 0.875000
vt 0.281250 0.375000
vt 0.281250 0.812500
vt 0.281250 0.312500
vt 0.281250 0.750000
vt 0.281250 0.250000
vt 0.281250 0.687500
vt 0.281250 0.187500
vt 0.281250 0.625000
vt 0.250000 0.812500
vt 0.250000 0.750000
vt 0.250000 0.312500
vt 0.250000 0.250000
vt 0.250000 0.687500
vt 0.250000 0.187500
vt 0.250000 0.625000
vt 0.250000 0.125000
vt 0.250000 0.562500
vt 0.250000 0.062500
vt 0.250000 0.500000
vt 0.265625 1.000000
vt 0.250000 0.937500
vt 0.265625 0.000000
vt 0.250000 0.437500
vt 0.250000 0.875000
vt 0.250000 0.375000
vt 0.218750 0.562500
vt 0.218750 0.500000
vt 0.234375 1.000000
vt 0.218750 0.937500
vt 0.234375 0.000000
vt 0.218750 0.062500
vt 0.218750 0.437500
vt 0.218750 0.875000
vt 0.218750 0.375000
vt 0.218750 0.812500
vt 0.218750 0.312500
vt 0.218750 0.750000
vt 0.218750 0.250000
vt 0.218750 0.687500
vt 0.218750 0.187500
vt 0.218750 0.625000
vt 0.218750 0.125000
vt 0.187500 0.312500
vt 0.187500 0.250000
vt 0.187500 0.750000
vt 0.187500 0.687500
vt 0.187500 0.187500
vt 0.187500 0.625000
vt 0.187500 0.125000
vt 0.187500 0.562500
vt 0.187500 0.062500
vt 0.187500 0.500000
vt 0.203125 1.000000
vt 0.187500 0.937500
vt 0.203125 0.000000
vt 0.187500 0.437500
vt 0.187500 0.875000
vt 0.187500 0.375000
vt 0.187500 0.812500
vt 0.171875 1.000000
vt 0.156250 0.937500
vt 0.171875 0.000000
vt 0.156250 0.062500
vt 0.156250 0.500000
vt 0.156250 0.437500
vt 0.156250 0.875000
vt 0.156250 0.375000
vt 0.156250 0.812500
vt 0.156250 0.312500
vt 0.156250 0.750000
vt 0.156250 0.250000
vt 0.156250 0.687500
vt 0.156250 0.187500
vt 0.156250 0.625000
vt 0.156250 0.125000
vt 0.156250 0.562500
vt 0.125000 0.750000
vt 0.125000 0.687500
vt 0.125000 0.250000
vt 0.125000 0.187500
vt 0.125000 0.625000
vt 0.125000 0.125000
vt 0.125000 0.562500
vt 0.125000 0.062500
vt 0.125000 0.500000
vt 0.140625 1.000000
vt 0.125000 0.937500
vt 0.140625 0.000000
vt 0.125000 0.437500
vt 0.125000 0.875000
vt 0.125000 0.375000
vt 0.125000 0.812500
vt 0.125000 0.312500
vt 0.093750 0.500000
vt 0.093750 0.437500
vt 0.093750 0.937500
vt 0.093750 0.875000
vt 0.093750 0.375000
vt 0.093750 0.812500
vt 0.093750 0.312500
vt 0.093750 0.750000
vt 0.093750 0.250000
vt 0.093750 0.687500
vt 0.093750 0.187500
vt 0.093750 0.625000
vt 0.093750 0.125000
vt 0.093750 0.562500
vt 0.093750 0.062500
vt 0.109375 1.000000
vt 0.109375 0.000000
vt 0.062500 0.250000
vt 0.062500 0.187500
vt 0.062500 0.687500
vt 0.062500 0.625000
vt 0.062500 0.125000
vt 0.062500 0.562500
vt 0.062500 0.062500
vt 0.062500 0.500000
vt 0.078125 1.000000
vt 0.062500 0.937500
vt 0.078125 0.000000
vt 0.062500 0.437500
vt 0.062500 0.875000
vt 0.062500 0.375000
vt 0.062500 0.812500
vt 0.062500 0.312500
vt 0.062500 0.750000
vt 0.031250 0.437500
vt 0.031250 0.375000
vt 0.031250 0.875000
vt 0.031250 0.812500
vt 0.031250 0.312500
vt 0.031250 0.750000
vt 0.031250 0.250000
vt 0.031250 0.687500
vt 0.031250 0.187500
vt 0.031250 0.625000
vt 0.031250 0.125000
vt 0.031250 0.562500
vt 0.031250 0.062500
vt 0.031250 0.500000
vt 0.046875 1.000000
vt 0.031250 0.937500
vt 0.046875 0.000000
vt 0.000000 0.187500
vt 0.000000 0.125000
vt 0.000000 0.625000
vt 0.000000 0.562500
vt 0.000000 0.062500
vt 0.000000 0.500000
vt 0.015625 1.000000
vt 0.000000 0.937500
vt 0.015625 0.000000
vt 0.000000 0.437500
vt 0.000000 0.875000
vt 0.000000 0.375000
vt 0.000000 0.812500
vt 0.000000 0.312500
vt 0.000000 0.750000
vt 0.000000 0.250000
vt 0.000000 0.687500
vt 1.000000 0.812500
vt 1.000000 0.875000
vt 0.968750 0.875000
vt 0.968750 0.812500
vt 1.000000 0.312500
vt 1.000000 0.375000
vt 0.968750 0.375000
vt 0.968750 0.312500
vt 1.000000 0.750000
vt 0.968750 0.750000
vt 1.000000 0.250000
vt 0.968750 0.250000
vt 1.000000 0.687500
vt 0.968750 0.687500
vt 1.000000 0.187500
vt 0.968750 0.187500
vt 1.000000 0.625000
vt 0.968750 0.625000
vt 1.000000 0.125000
vt 0.968750 0.125000
vt 1.000000 0.562500
vt 0.968750 0.562500
vt 1.000000 0.062500
vt 0.968750 0.062500
vt 1.000000 0.500000
vt 0.968750 0.500000
vt 1.000000 0.937500
vt 0.984375 1.000000
vt 0.968750 0.937500
vt 0.984375 0.000000
vt 1.000000 0.437500
vt 0.968750 0.437500
vt 0.937500 0.625000
vt 0.937500 0.562500
vt 0.937500 0.125000
vt 0.937500 0.062500
vt 0.937500 0.500000
vt 0.953125 1.000000
vt 0.937500 0.937500
vt 0.953125 0.000000
vt 0.937500 0.437500
vt 0.937500 0.875000
vt 0.937500 0.375000
vt 0.937500 0.812500
vt 0.937500 0.312500
vt 0.937500 0.750000
vt 0.937500 0.250000
vt 0.937500 0.687500
vt 0.937500 0.187500
vt 0.906250 0.375000
vt 0.906250 0.312500
vt 0.906250 0.812500
vt 0.906250 0.750000
vt 0.906250 0.250000
vt 0.906250 0.687500
vt 0.906250 0.187500
vt 0.906250 0.625000
vt 0.906250 0.125000
vt 0.906250 0.562500
vt 0.906250 0.062500
vt 0.906250 0.500000
vt 0.921875 1.000000
vt 0.906250 0.937500
vt 0.921875 0.000000
vt 0.906250 0.437500
vt 0.906250 0.875000
vt 0.875000 0.125000
vt 0.875000 0.062500
vt 0.875000 0.562500
vt 0.875000 0.500000
vt 0.890625 1.000000
vt 0.875000 0.937500
vt 0.890625 0.000000
vt 0.875000 0.437500
vt 0.875000 0.875000
vt 0.875000 0.375000
vt 0.875000 0.812500
vt 0.875000 0.312500
vt 0.875000 0.750000
vt 0.875000 0.250000
vt 0.875000 0.687500
vt 0.875000 0.187500
vt 0.875000 0.625000
vt 0.843750 0.812500
vt 0.843750 0.750000
vt 0.843750 0.312500
vt 0.843750 0.250000
vt 0.843750 0.687500
vt 0.843750 0.187500
vt 0.843750 0.625000
vt 0.843750 0.125000
vt 0.843750 0.562500
vt 0.843750 0.062500
vt 0.843750 0.500000
vt 0.859375 1.000000
vt 0.843750 0.937500
vt 0.859375 0.000000
vt 0.843750 0.437500
vt 0.843750 0.875000
vt 0.843750 0.375000
vt 0.812500 0.562500
vt 0.812500 0.500000
vt 0.828125 1.000000
vt 0.812500 0.937500
vt 0.828125 0.000000
vt 0.812500 0.062500
vt 0.812500 0.437500
vt 0.812500 0.875000
vt 0.812500 0.375000
vt 0.812500 0.812500
vt 0.812500 0.312500
vt 0.812500 0.750000
vt 0.812500 0.250000
vt 0.812500 0.687500
vt 0.812500 0.187500
vt 0.812500 0.625000
vt 0.812500 0.125000
vt 0.781250 0.312500
vt 0.781250 0.250000
vt 0.781250 0.750000
vt 0.781250 0.687500
vt 0.781250 0.187500
vt 0.781250 0.625000
vt 0.781250 0.125000
vt 0.781250 0.562500
vt 0.781250 0.062500
vt 0.781250 0.500000
vt 0.796875 1.000000
vt 0.781250 0.937500
vt 0.796875 0.000000
vt 0.781250 0.437500
vt 0.781250 0.875000
vt 0.781250 0.375000
vt 0.781250 0.812500
vt 0.765625 0.000000
vt 0.765625 1.000000
s 0
g off
f 474/1/1 1/2/1 9/3/1
f 8/4/2 482/5/2 23/6/2
f 6/7/3 5/8/3 16/9/3 17/10/3
f 475/11/4 474/1/4 9/3/4 10/12/4
f 478/13/5 6/7/5 17/10/5 18/14/5
f 2/15/6 475/11/6 10/12/6 11/16/6
f 7/17/7 478/13/7 18/14/7 19/18/7
f 476/19/8 2/15/8 11/16/8 12/20/8
f 479/21/9 7/17/9 19/18/9 20/22/9
f 3/23/10 476/19/10 12/20/10 13/24/10
f 480/25/11 479/21/11 20/22/11 21/26/11
f 477/27/12 3/23/12 13/24/12 14/28/12
f 481/29/13 480/25/13 21/26/13 22/30/13
f 4/31/14 477/27/14 14/28/14 15/32/14
f 482/5/15 481/29/15 22/30/15 23/6/15
f 5/8/16 4/31/16 15/32/16 16/9/16
f 15/32/17 14/28/17 29/33/17 30/34/17
f 23/6/18 22/30/18 37/35/18 38/36/18
f 16/9/19 15/32/19 30/34/19 31/37/19
f 9/3/20 1/38/20 24/39/20
f 8/40/21 23/6/21 38/36/21
f 17/10/22 16/9/22 31/37/22 32/41/22
f 10/12/23 9/3/23 24/39/23 25/42/23
f 18/14/24 17/10/24 32/41/24 33/43/24
f 11/16/25 10/12/25 25/42/25 26/44/25
f 19/18/26 18/14/26 33/43/26 34/45/26
f 12/20/27 11/16/27 26/44/27 27/46/27
f 20/22/28 19/18/28 34/45/28 35/47/28
f 13/24/29 12/20/29 27/46/29 28/48/29
f 21/26/30 20/22/30 35/47/30 36/49/30
f 14/28/31 13/24/31 28/48/31 29/33/31
f 22/30/32 21/26/32 36/49/32 37/35/32
f 34/45/33 33/43/33 48/50/33 49/51/33
f 27/46/34 26/44/34 41/52/34 42/53/34
f 35/47/35 34/45/35 49/51/35 50/54/35
f 28/48/36 27/46/36 42/53/36 43/55/36
f 36/49/37 35/47/37 50/54/37 51/56/37
f 29/33/38 28/48/38 43/55/38 44/57/38
f 37/35/39 36/49/39 51/56/39 52/58/39
f 30/34/40 29/33/40 44/57/40 45/59/40
f 38/36/41 37/35/41 52/58/41 53/60/41
f 31/37/42 30/34/42 45/59/42 46/61/42
f 24/39/43 1/62/43 39/63/43
f 8/64/44 38/36/44 53/60/44
f 32/41/45 31/37/45 46/61/45 47/65/45
f 25/42/46 24/39/46 39/63/46 40/66/46
f 33/43/47 32/41/47 47/65/47 48/50/47
f 26/44/48 25/42/48 40/66/48 41/52/48
f 53/60/49 52/58/49 67/67/49 68/68/49
f 46/61/50 45/59/50 60/69/50 61/70/50
f 39/63/51 1/71/51 54/72/51
f 8/73/52 53/60/52 68/68/52
f 47/65/53 46/61/53 61/70/53 62/74/53
f 40/66/54 39/63/54 54/72/54 55/75/54
f 48/50/55 47/65/55 62/74/55 63/76/55
f 41/52/56 40/66/56 55/75/56 56/77/56
f 49/51/57 48/50/57 63/76/57 64/78/57
f 42/53/58 41/52/58 56/77/58 57/79/58
f 50/54/59 49/51/59 64/78/59 65/80/59
f 43/55/60 42/53/60 57/79/60 58/81/60
f 51/56/61 50/54/61 65/80/61 66/82/61
f 44/57/62 43/55/62 58/81/62 59/83/62
f 52/58/63 51/56/63 66/82/63 67/67/63
f 45/59/64 44/57/64 59/83/64 60/69/64
f 65/80/65 64/78/65 79/84/65 80/85/65
f 58/81/66 57/79/66 72/86/66 73/87/66
f 66/82/67 65/80/67 80/85/67 81/88/67
f 59/83/68 58/81/68 73/87/68 74/89/68
f 67/67/69 66/82/69 81/88/69 82/90/69
f 60/69/70 59/83/70 74/89/70 75/91/70
f 68/68/71 67/67/71 82/90/71 83/92/71
f 61/70/72 60/69/72 75/91/72 76/93/72
f 54/72/73 1/94/73 69/95/73
f 8/96/74 68/68/74 83/92/74
f 62/74/75 61/70/75 76/93/75 77/97/75
f 55/75/76 54/72/76 69/95/76 70/98/76
f 63/76/77 62/74/77 77/97/77 78/99/77
f 56/77/78 55/75/78 70/98/78 71/100/78
f 64/78/79 63/76/79 78/99/79 79/84/79
f 57/79/80 56/77/80 71/100/80 72/86/80
f 69/95/81 1/101/81 84/102/81
f 8/103/82 83/92/82 98/104/82
f 77/97/83 76/93/83 91/105/83 92/106/83
f 70/98/84 69/95/84 84/102/84 85/107/84
f 78/99/85 77/97/85 92/106/85 93/108/85
f 71/100/86 70/98/86 85/107/86 86/109/86
f 79/84/87 78/99/87 93/108/87 94/110/87
f 72/86/88 71/100/88 86/109/88 87/111/88
f 80/85/89 79/84/89 94/110/89 95/112/89
f 73/87/90 72/86/90 87/111/90 88/113/90
f 81/88/91 80/85/91 95/112/91 96/114/91
f 74/89/92 73/87/92 88/113/92 89/115/92
f 82/90/93 81/88/93 96/114/93 97/116/93
f 75/91/94 74/89/94 89/115/94 90/117/94
f 83/92/95 82/90/95 97/116/95 98/104/95
f 76/93/96 75/91/96 90/117/96 91/105/96
f 88/113/97 87/111/97 102/118/97 103/119/97
f 96/114/98 95/112/98 110/120/98 111/121/98
f 89/115/99 88/113/99 103/119/99 104/122/99
f 97/116/100 96/114/100 111/121/100 112/123/100
f 90/117/101 89/115/101 104/122/101 105/124/101
f 98/104/102 97/116/102 112/123/102 113/125/102
f 91/105/103 90/117/103 105/124/103 106/126/103
f 84/102/104 1/127/104 99/128/104
f 8/129/105 98/104/105 113/125/105
f 92/106/106 91/105/106 106/126/106 107/130/106
f 85/107/107 84/102/107 99/128/107 100/131/107
f 93/108/108 92/106/108 107/130/108 108/132/108
f 86/109/109 85/107/109 100/131/109 101/133/109
f 94/110/110 93/108/110 108/132/110 109/134/110
f 87/111/111 86/109/111 101/133/111 102/118/111
f 95/112/112 94/110/112 109/134/112 110/120/112
f 107/130/113 106/126/113 121/135/113 122/136/113
f 100/131/114 99/128/114 114/137/114 115/138/114
f 108/132/115 107/130/115 122/136/115 123/139/115
f 101/133/116 100/131/116 115/138/116 116/140/116
f 109/134/117 108/132/117 123/139/117 124/141/117
f 102/118/118 101/133/118 116/140/118 117/142/118
f 110/120/119 109/134/119 124/141/119 125/143/119
f 103/119/120 102/118/120 117/142/120 118/144/120
f 111/121/121 110/120/121 125/143/121 126/145/121
f 104/122/122 103/119/122 118/144/122 119/146/122
f 112/123/123 111/121/123 126/145/123 127/147/123
f 105/124/124 104/122/124 119/146/124 120/148/124
f 113/125/125 112/123/125 127/147/125 128/149/125
f 106/126/126 105/124/126 120/148/126 121/135/126
f 99/128/127 1/150/127 114/137/127
f 8/151/128 113/125/128 128/149/128
f 126/145/129 125/143/129 140/152/129 141/153/129
f 119/146/130 118/144/130 133/154/130 134/155/130
f 127/147/131 126/145/131 141/153/131 142/156/131
f 120/148/132 119/146/132 134/155/132 135/157/132
f 128/149/133 127/147/133 142/156/133 143/158/133
f 121/135/134 120/148/134 135/157/134 136/159/134
f 114/137/135 1/160/135 129/161/135
f 8/162/136 128/149/136 143/158/136
f 122/136/137 121/135/137 136/159/137 137/163/137
f 115/138/138 114/137/138 129/161/138 130/164/138
f 123/139/139 122/136/139 137/163/139 138/165/139
f 116/140/140 115/138/140 130/164/140 131/166/140
f 124/141/141 123/139/141 138/165/141 139/167/141
f 117/142/142 116/140/142 131/166/142 132/168/142
f 125/143/143 124/141/143 139/167/143 140/152/143
f 118/144/144 117/142/144 132/168/144 133/154/144
f 130/164/145 129/161/145 144/169/145 145/170/145
f 138/165/146 137/163/146 152/171/146 153/172/146
f 131/166/147 130/164/147 145/170/147 146/173/147
f 139/167/148 138/165/148 153/172/148 154/174/148
f 132/168/149 131/166/149 146/173/149 147/175/149
f 140/152/150 139/167/150 154/174/150 155/176/150
f 133/154/151 132/168/151 147/175/151 148/177/151
f 141/153/152 140/152/152 155/176/152 156/178/152
f 134/155/153 133/154/153 148/177/153 149/179/153
f 142/156/154 141/153/154 156/178/154 157/180/154
f 135/157/155 134/155/155 149/179/155 150/181/155
f 143/158/156 142/156/156 157/180/156 158/182/156
f 136/159/157 135/157/157 150/181/157 151/183/157
f 129/161/158 1/184/158 144/169/158
f 8/185/159 143/158/159 158/182/159
f 137/163/160 136/159/160 151/183/160 152/171/160
f 149/179/161 148/177/161 163/186/161 164/187/161
f 157/180/162 156/178/162 171/188/162 172/189/162
f 150/181/163 149/179/163 164/187/163 165/190/163
f 158/182/164 157/180/164 172/189/164 173/191/164
f 151/183/165 150/181/165 165/190/165 166/192/165
f 144/169/166 1/193/166 159/194/166
f 8/195/167 158/182/167 173/191/167
f 152/171/168 151/183/168 166/192/168 167/196/168
f 145/170/169 144/169/169 159/194/169 160/197/169
f 153/172/170 152/171/170 167/196/170 168/198/170
f 146/173/171 145/170/171 160/197/171 161/199/171
f 154/174/172 153/172/172 168/198/172 169/200/172
f 147/175/173 146/173/173 161/199/173 162/201/173
f 155/176/174 154/174/174 169/200/174 170/202/174
f 148/177/175 147/175/175 162/201/175 163/186/175
f 156/178/176 155/176/176 170/202/176 171/188/176
f 168/198/177 167/196/177 182/203/177 183/204/177
f 161/199/178 160/197/178 175/205/178 176/206/178
f 169/200/179 168/198/179 183/204/179 184/207/179
f 162/201/180 161/199/180 176/206/180 177/208/180
f 170/202/181 169/200/181 184/207/181 185/209/181
f 163/186/182 162/201/182 177/208/182 178/210/182
f 171/188/183 170/202/183 185/209/183 186/211/183
f 164/187/184 163/186/184 178/210/184 179/212/184
f 172/189/185 171/188/185 186/211/185 187/213/185
f 165/190/186 164/187/186 179/212/186 180/214/186
f 173/191/187 172/189/187 187/213/187 188/215/187
f 166/192/188 165/190/188 180/214/188 181/216/188
f 159/194/189 1/217/189 174/218/189
f 8/219/190 173/191/190 188/215/190
f 167/196/191 166/192/191 181/216/191 182/203/191
f 160/197/192 159/194/192 174/218/192 175/205/192
f 187/213/193 186/211/193 201/220/193 202/221/193
f 180/214/194 179/212/194 194/222/194 195/223/194
f 188/215/195 187/213/195 202/221/195 203/224/195
f 181/216/196 180/214/196 195/223/196 196/225/196
f 174/218/197 1/226/197 189/227/197
f 8/228/198 188/215/198 203/224/198
f 182/203/199 181/216/199 196/225/199 197/229/199
f 175/205/200 174/218/200 189/227/200 190/230/200
f 183/204/201 182/203/201 197/229/201 198/231/201
f 176/206/202 175/205/202 190/230/202 191/232/202
f 184/207/203 183/204/203 198/231/203 199/233/203
f 177/208/204 176/206/204 191/232/204 192/234/204
f 185/209/205 184/207/205 199/233/205 200/235/205
f 178/210/206 177/208/206 192/234/206 193/236/206
f 186/211/207 185/209/207 200/235/207 201/220/207
f 179/212/208 178/210/208 193/236/208 194/222/208
f 199/233/209 198/231/209 213/237/209 214/238/209
f 192/234/210 191/232/210 206/239/210 207/240/210
f 200/235/211 199/233/211 214/238/211 215/241/211
f 193/236/212 192/234/212 207/240/212 208/242/212
f 201/220/213 200/235/213 215/241/213 216/243/213
f 194/222/214 193/236/214 208/242/214 209/244/214
f 202/221/215 201/220/215 216/243/215 217/245/215
f 195/223/216 194/222/216 209/244/216 210/246/216
f 203/224/217 202/221/217 217/245/217 218/247/217
f 196/225/218 195/223/218 210/246/218 211/248/218
f 189/227/219 1/249/219 204/250/219
f 8/251/220 203/224/220 218/247/220
f 197/229/221 196/225/221 211/248/221 212/252/221
f 190/230/222 189/227/222 204/250/222 205/253/222
f 198/231/223 197/229/223 212/252/223 213/237/223
f 191/232/224 190/230/224 205/253/224 206/239/224
f 218/247/225 217/245/225 232/254/225 233/255/225
f 211/248/226 210/246/226 225/256/226 226/257/226
f 204/250/227 1/258/227 219/259/227
f 8/260/228 218/247/228 233/255/228
f 212/252/229 211/248/229 226/257/229 227/261/229
f 205/253/230 204/250/230 219/259/230 220/262/230
f 213/237/231 212/252/231 227/261/231 228/263/231
f 206/239/232 205/253/232 220/262/232 221/264/232
f 214/238/233 213/237/233 228/263/233 229/265/233
f 207/240/234 206/239/234 221/264/234 222/266/234
f 215/241/235 214/238/235 229/265/235 230/267/235
f 208/242/236 207/240/236 222/266/236 223/268/236
f 216/243/237 215/241/237 230/267/237 231/269/237
f 209/244/238 208/242/238 223/268/238 224/270/238
f 217/245/239 216/243/239 231/269/239 232/254/239
f 210/246/240 209/244/240 224/270/240 225/256/240
f 222/266/241 221/264/241 236/271/241 237/272/241
f 230/267/242 229/265/242 244/273/242 245/274/242
f 223/268/243 222/266/243 237/272/243 238/275/243
f 231/269/244 230/267/244 245/274/244 246/276/244
f 224/270/245 223/268/245 238/275/245 239/277/245
f 232/254/246 231/269/246 246/276/246 247/278/246
f 225/256/247 224/270/247 239/277/247 240/279/247
f 233/255/248 232/254/248 247/278/248 248/280/248
f 226/257/249 225/256/249 240/279/249 241/281/249
f 219/259/250 1/282/250 234/283/250
f 8/284/251 233/255/251 248/280/251
f 227/261/252 226/257/252 241/281/252 242/285/252
f 220/262/253 219/259/253 234/283/253 235/286/253
f 228/263/254 227/261/254 242/285/254 243/287/254
f 221/264/255 220/262/255 235/286/255 236/271/255
f 229/265/256 228/263/256 243/287/256 244/273/256
f 241/281/257 240/279/257 255/288/257 256/289/257
f 234/283/258 1/290/258 249/291/258
f 8/292/259 248/280/259 263/293/259
f 242/285/260 241/281/260 256/289/260 257/294/260
f 235/286/261 234/283/261 249/291/261 250/295/261
f 243/287/262 242/285/262 257/294/262 258/296/262
f 236/271/263 235/286/263 250/295/263 251/297/263
f 244/273/264 243/287/264 258/296/264 259/298/264
f 237/272/265 236/271/265 251/297/265 252/299/265
f 245/274/266 244/273/266 259/298/266 260/300/266
f 238/275/267 237/272/267 252/299/267 253/301/267
f 246/276/268 245/274/268 260/300/268 261/302/268
f 239/277/269 238/275/269 253/301/269 254/303/269
f 247/278/270 246/276/270 261/302/270 262/304/270
f 240/279/271 239/277/271 254/303/271 255/288/271
f 248/280/272 247/278/272 262/304/272 263/293/272
f 260/300/273 259/298/273 274/305/273 275/306/273
f 253/301/274 252/299/274 267/307/274 268/308/274
f 261/302/275 260/300/275 275/306/275 276/309/275
f 254/303/276 253/301/276 268/308/276 269/310/276
f 262/304/277 261/302/277 276/309/277 277/311/277
f 255/288/278 254/303/278 269/310/278 270/312/278
f 263/293/279 262/304/279 277/311/279 278/313/279
f 256/289/280 255/288/280 270/312/280 271/314/280
f 249/291/281 1/315/281 264/316/281
f 8/317/282 263/293/282 278/313/282
f 257/294/283 256/289/283 271/314/283 272/318/283
f 250/295/284 249/291/284 264/316/284 265/319/284
f 258/296/285 257/294/285 272/318/285 273/320/285
f 251/297/286 250/295/286 265/319/286 266/321/286
f 259/298/287 258/296/287 273/320/287 274/305/287
f 252/299/288 251/297/288 266/321/288 267/307/288
f 264/316/289 1/322/289 279/323/289
f 8/324/290 278/313/290 293/325/290
f 272/318/291 271/314/291 286/326/291 287/327/291
f 265/319/292 264/316/292 279/323/292 280/328/292
f 273/320/293 272/318/293 287/327/293 288/329/293
f 266/321/294 265/319/294 280/328/294 281/330/294
f 274/305/295 273/320/295 288/329/295 289/331/295
f 267/307/296 266/321/296 281/330/296 282/332/296
f 275/306/297 274/305/297 289/331/297 290/333/297
f 268/308/298 267/307/298 282/332/298 283/334/298
f 276/309/299 275/306/299 290/333/299 291/335/299
f 269/310/300 268/308/300 283/334/300 284/336/300
f 277/311/301 276/309/301 291/335/301 292/337/301
f 270/312/302 269/310/302 284/336/302 285/338/302
f 278/313/303 277/311/303 292/337/303 293/325/303
f 271/314/304 270/312/304 285/338/304 286/326/304
f 283/334/305 282/332/305 297/339/305 298/340/305
f 291/335/306 290/333/306 305/341/306 306/342/306
f 284/336/307 283/334/307 298/340/307 299/343/307
f 292/337/308 291/335/308 306/342/308 307/344/308
f 285/338/309 284/336/309 299/343/309 300/345/309
f 293/325/310 292/337/310 307/344/310 308/346/310
f 286/326/311 285/338/311 300/345/311 301/347/311
f 279/323/312 1/348/312 294/349/312
f 8/350/313 293/325/313 308/346/313
f 287/327/314 286/326/314 301/347/314 302/351/314
f 280/328/315 279/323/315 294/349/315 295/352/315
f 288/329/316 287/327/316 302/351/316 303/353/316
f 281/330/317 280/328/317 295/352/317 296/354/317
f 289/331/318 288/329/318 303/353/318 304/355/318
f 282/332/319 281/330/319 296/354/319 297/339/319
f 290/333/320 289/331/320 304/355/320 305/341/320
f 302/351/321 301/347/321 316/356/321 317/357/321
f 295/352/322 294/349/322 309/358/322 310/359/322
f 303/353/323 302/351/323 317/357/323 318/360/323
f 296/354/324 295/352/324 310/359/324 311/361/324
f 304/355/325 303/353/325 318/360/325 319/362/325
f 297/339/326 296/354/326 311/361/326 312/363/326
f 305/341/327 304/355/327 319/362/327 320/364/327
f 298/340/328 297/339/328 312/363/328 313/365/328
f 306/342/329 305/341/329 320/364/329 321/366/329
f 299/343/330 298/340/330 313/365/330 314/367/330
f 307/344/331 306/342/331 321/366/331 322/368/331
f 300/345/332 299/343/332 314/367/332 315/369/332
f 308/346/333 307/344/333 322/368/333 323/370/333
f 301/347/334 300/345/334 315/369/334 316/356/334
f 294/349/335 1/371/335 309/358/335
f 8/372/336 308/346/336 323/370/336
f 321/366/337 320/364/337 335/373/337 336/374/337
f 314/367/338 313/365/338 328/375/338 329/376/338
f 322/368/339 321/366/339 336/374/339 337/377/339
f 315/369/340 314/367/340 329/376/340 330/378/340
f 323/370/341 322/368/341 337/377/341 338/379/341
f 316/356/342 315/369/342 330/378/342 331/380/342
f 309/358/343 1/381/343 324/382/343
f 8/383/344 323/370/344 338/379/344
f 317/357/345 316/356/345 331/380/345 332/384/345
f 310/359/346 309/358/346 324/382/346 325/385/346
f 318/360/347 317/357/347 332/384/347 333/386/347
f 311/361/348 310/359/348 325/385/348 326/387/348
f 319/362/349 318/360/349 333/386/349 334/388/349
f 312/363/350 311/361/350 326/387/350 327/389/350
f 320/364/351 319/362/351 334/388/351 335/373/351
f 313/365/352 312/363/352 327/389/352 328/375/352
f 333/386/353 332/384/353 347/390/353 348/391/353
f 326/387/354 325/385/354 340/392/354 341/393/354
f 334/388/355 333/386/355 348/391/355 349/394/355
f 327/389/356 326/387/356 341/393/356 342/395/356
f 335/373/357 334/388/357 349/394/357 350/396/357
f 328/375/358 327/389/358 342/395/358 343/397/358
f 336/374/359 335/373/359 350/396/359 351/398/359
f 329/376/360 328/375/360 343/397/360 344/399/360
f 337/377/361 336/374/361 351/398/361 352/400/361
f 330/378/362 329/376/362 344/399/362 345/401/362
f 338/379/363 337/377/363 352/400/363 353/402/363
f 331/380/364 330/378/364 345/401/364 346/403/364
f 324/382/365 1/404/365 339/405/365
f 8/406/366 338/379/366 353/402/366
f 332/384/367 331/380/367 346/403/367 347/390/367
f 325/385/368 324/382/368 339/405/368 340/392/368
f 352/400/369 351/398/369 366/407/369 367/408/369
f 345/401/370 344/399/370 359/409/370 360/410/370
f 353/402/371 352/400/371 367/408/371 368/411/371
f 346/403/372 345/401/372 360/410/372 361/412/372
f 339/405/373 1/413/373 354/414/373
f 8/415/374 353/402/374 368/411/374
f 347/390/375 346/403/375 361/412/375 362/416/375
f 340/392/376 339/405/376 354/414/376 355/417/376
f 348/391/377 347/390/377 362/416/377 363/418/377
f 341/393/378 340/392/378 355/417/378 356/419/378
f 349/394/379 348/391/379 363/418/379 364/420/379
f 342/395/380 341/393/380 356/419/380 357/421/380
f 350/396/381 349/394/381 364/420/381 365/422/381
f 343/397/382 342/395/382 357/421/382 358/423/382
f 351/398/383 350/396/383 365/422/383 366/407/383
f 344/399/384 343/397/384 358/423/384 359/409/384
f 356/424/385 355/425/385 370/426/385 371/427/385
f 364/428/386 363/429/386 378/430/386 379/431/386
f 357/432/387 356/424/387 371/427/387 372/433/387
f 365/434/388 364/428/388 379/431/388 380/435/388
f 358/436/389 357/432/389 372/433/389 373/437/389
f 366/438/390 365/434/390 380/435/390 381/439/390
f 359/440/391 358/436/391 373/437/391 374/441/391
f 367/442/392 366/438/392 381/439/392 382/443/392
f 360/444/393 359/440/393 374/441/393 375/445/393
f 368/446/394 367/442/394 382/443/394 383/447/394
f 361/448/395 360/444/395 375/445/395 376/449/395
f 354/450/396 1/451/396 369/452/396
f 8/453/397 368/446/397 383/447/397
f 362/454/398 361/448/398 376/449/398 377/455/398
f 355/425/399 354/450/399 369/452/399 370/426/399
f 363/429/400 362/454/400 377/455/400 378/430/400
f 375/445/401 374/441/401 389/456/401 390/457/401
f 383/447/402 382/443/402 397/458/402 398/459/402
f 376/449/403 375/445/403 390/457/403 391/460/403
f 369/452/404 1/461/404 384/462/404
f 8/463/405 383/447/405 398/459/405
f 377/455/406 376/449/406 391/460/406 392/464/406
f 370/426/407 369/452/407 384/462/407 385/465/407
f 378/430/408 377/455/408 392/464/408 393/466/408
f 371/427/409 370/426/409 385/465/409 386/467/409
f 379/431/410 378/430/410 393/466/410 394/468/410
f 372/433/411 371/427/411 386/467/411 387/469/411
f 380/435/412 379/431/412 394/468/412 395/470/412
f 373/437/413 372/433/413 387/469/413 388/471/413
f 381/439/414 380/435/414 395/470/414 396/472/414
f 374/441/415 373/437/415 388/471/415 389/456/415
f 382/443/416 381/439/416 396/472/416 397/458/416
f 394/468/417 393/466/417 408/473/417 409/474/417
f 387/469/418 386/467/418 401/475/418 402/476/418
f 395/470/419 394/468/419 409/474/419 410/477/419
f 388/471/420 387/469/420 402/476/420 403/478/420
f 396/472/421 395/470/421 410/477/421 411/479/421
f 389/456/422 388/471/422 403/478/422 404/480/422
f 397/458/423 396/472/423 411/479/423 412/481/423
f 390/457/424 389/456/424 404/480/424 405/482/424
f 398/459/425 397/458/425 412/481/425 413/483/425
f 391/460/426 390/457/426 405/482/426 406/484/426
f 384/462/427 1/485/427 399/486/427
f 8/487/428 398/459/428 413/483/428
f 392/464/429 391/460/429 406/484/429 407/488/429
f 385/465/430 384/462/430 399/486/430 400/489/430
f 393/466/431 392/464/431 407/488/431 408/473/431
f 386/467/432 385/465/432 400/489/432 401/475/432
f 413/483/433 412/481/433 427/490/433 428/491/433
f 406/484/434 405/482/434 420/492/434 421/493/434
f 399/486/435 1/494/435 414/495/435
f 8/496/436 413/483/436 428/491/436
f 407/488/437 406/484/437 421/493/437 422/497/437
f 400/489/438 399/486/438 414/495/438 415/498/438
f 408/473/439 407/488/439 422/497/439 423/499/439
f 401/475/440 400/489/440 415/498/440 416/500/440
f 409/474/441 408/473/441 423/499/441 424/501/441
f 402/476/442 401/475/442 416/500/442 417/502/442
f 410/477/443 409/474/443 424/501/443 425/503/443
f 403/478/444 402/476/444 417/502/444 418/504/444
f 411/479/445 410/477/445 425/503/445 426/505/445
f 404/480/446 403/478/446 418/504/446 419/506/446
f 412/481/447 411/479/447 426/505/447 427/490/447
f 405/482/448 404/480/448 419/506/448 420/492/448
f 417/502/449 416/500/449 431/507/449 432/508/449
f 425/503/450 424/501/450 439/509/450 440/510/450
f 418/504/451 417/502/451 432/508/451 433/511/451
f 426/505/452 425/503/452 440/510/452 441/512/452
f 419/506/453 418/504/453 433/511/453 434/513/453
f 427/490/454 426/505/454 441/512/454 442/514/454
f 420/492/455 419/506/455 434/513/455 435/515/455
f 428/491/456 427/490/456 442/514/456 443/516/456
f 421/493/457 420/492/457 435/515/457 436/517/457
f 414/495/458 1/518/458 429/519/458
f 8/520/459 428/491/459 443/516/459
f 422/497/460 421/493/460 436/517/460 437/521/460
f 415/498/461 414/495/461 429/519/461 430/522/461
f 423/499/462 422/497/462 437/521/462 438/523/462
f 416/500/463 415/498/463 430/522/463 431/507/463
f 424/501/464 423/499/464 438/523/464 439/509/464
f 436/517/465 435/515/465 450/524/465 451/525/465
f 429/519/466 1/526/466 444/527/466
f 8/528/467 443/516/467 458/529/467
f 437/521/468 436/517/468 451/525/468 452/530/468
f 430/522/469 429/519/469 444/527/469 445/531/469
f 438/523/470 437/521/470 452/530/470 453/532/470
f 431/507/471 430/522/471 445/531/471 446/533/471
f 439/509/472 438/523/472 453/532/472 454/534/472
f 432/508/473 431/507/473 446/533/473 447/535/473
f 440/510/474 439/509/474 454/534/474 455/536/474
f 433/511/475 432/508/475 447/535/475 448/537/475
f 441/512/476 440/510/476 455/536/476 456/538/476
f 434/513/477 433/511/477 448/537/477 449/539/477
f 442/514/478 441/512/478 456/538/478 457/540/478
f 435/515/479 434/513/479 449/539/479 450/524/479
f 443/516/480 442/514/480 457/540/480 458/529/480
f 455/536/481 454/534/481 469/541/481 470/542/481
f 448/537/482 447/535/482 462/543/482 463/544/482
f 456/538/483 455/536/483 470/542/483 471/545/483
f 449/539/484 448/537/484 463/544/484 464/546/484
f 457/540/485 456/538/485 471/545/485 472/547/485
f 450/524/486 449/539/486 464/546/486 465/548/486
f 458/529/487 457/540/487 472/547/487 473/549/487
f 451/525/488 450/524/488 465/548/488 466/550/488
f 444/527/489 1/551/489 459/552/489
f 8/553/490 458/529/490 473/549/490
f 452/530/491 451/525/491 466/550/491 467/554/491
f 445/531/492 444/527/492 459/552/492 460/555/492
f 453/532/493 452/530/493 467/554/493 468/556/493
f 446/533/494 445/531/494 460/555/494 461/557/494
f 454/534/495 453/532/495 468/556/495 469/541/495
f 447/535/496 446/533/496 461/557/496 462/543/496
f 8/558/497 473/549/497 482/5/497
f 467/554/498 466/550/498 5/8/498 6/7/498
f 460/555/499 459/552/499 474/1/499 475/11/499
f 468/556/500 467/554/500 6/7/500 478/13/500
f 461/557/501 460/555/501 475/11/501 2/15/501
f 469/541/502 468/556/502 478/13/502 7/17/502
f 462/543/503 461/557/503 2/15/503 476/19/503
f 470/542/504 469/541/504 7/17/504 479/21/504
f 463/544/505 462/543/505 476/19/505 3/23/505
f 471/545/506 470/542/506 479/21/506 480/25/506
f 464/546/507 463/544/507 3/23/507 477/27/507
f 472/547/508 471/545/508 480/25/508 481/29/508
f 465/548/509 464/546/509 477/27/509 4/31/509
f 473/549/510 472/547/510 481/29/510 482/5/510
f 466/550/511 465/548/511 4/31/511 5/8/511
f 459/552/512 1/559/512 474/1/512
